<?xml version="1.0" standalone="no"?>
<!DOCTYPE svg PUBLIC "-//W3C//DTD SVG 20010904//EN"
 "http://www.w3.org/TR/2001/REC-SVG-20010904/DTD/svg10.dtd">
<svg version="1.0" xmlns="http://www.w3.org/2000/svg"
 width="371.000000pt" height="371.000000pt" viewBox="0 0 371.000000 371.000000"
 preserveAspectRatio="xMidYMid meet">
<metadata>
Created by potrace 1.14, written by Peter Selinger 2001-2017
</metadata>
<g transform="translate(0.000000,371.000000) scale(0.100000,-0.100000)"
fill="#000000" stroke="none">
<path d="M0 2444 c0 -1179 1 -1268 17 -1279 16 -12 16 -14 0 -38 -13 -21 -17
-49 -16 -132 0 -63 4 -103 10 -99 5 3 6 10 3 16 -4 6 6 20 21 32 24 20 26 24
14 49 -9 20 -10 30 -1 39 15 15 38 -4 46 -36 5 -21 11 -23 51 -20 49 3 63 -7
39 -27 -8 -7 -22 -25 -30 -41 -13 -25 -13 -30 0 -43 12 -13 19 -9 55 31 58 62
81 46 41 -29 -24 -44 -24 -47 -5 -47 15 0 31 -43 26 -72 -1 -10 2 -18 6 -18 5
0 9 8 10 18 3 32 22 72 36 72 8 0 22 9 32 20 16 18 20 19 27 5 5 -8 20 -15 33
-15 13 0 26 -4 30 -9 9 -16 -33 -33 -81 -33 -56 0 -65 -14 -20 -33 34 -14 45
-33 29 -48 -3 -4 -13 -1 -21 6 -13 10 -14 9 -10 -3 9 -28 54 -24 78 7 12 16
17 29 11 31 -21 7 -11 32 15 38 19 5 24 11 21 26 -4 13 -1 18 8 14 7 -2 21 2
32 9 17 13 16 14 -12 15 -31 0 -63 15 -54 24 9 9 52 10 76 2 26 -8 28 -1 13
40 -14 35 -9 39 19 13 18 -17 25 -18 36 -9 20 16 19 42 -2 88 -9 20 -17 42
-18 47 0 6 -5 19 -11 30 -16 34 -9 77 18 100 20 17 23 26 16 45 -6 15 -5 26 3
30 7 5 8 17 4 30 -5 16 -4 21 6 18 8 -3 15 -21 16 -44 3 -54 14 -124 20 -124
3 0 25 13 49 30 42 28 44 29 44 8 0 -12 5 -36 12 -54 8 -23 8 -43 0 -74 -7
-27 -7 -51 -1 -69 8 -24 14 -27 49 -25 46 2 60 -10 30 -26 -13 -7 -20 -7 -20
-1 0 6 -6 8 -14 5 -8 -3 -13 -15 -11 -27 6 -27 21 -42 29 -29 3 6 2 13 -4 17
-19 12 -11 26 8 16 13 -7 23 -6 31 2 10 9 11 8 6 -4 -8 -22 12 -34 30 -19 12
10 15 9 15 -4 0 -15 -16 -21 -52 -18 -24 2 -32 -35 -18 -79 7 -22 16 -39 19
-39 13 0 30 40 25 55 -10 26 16 17 28 -10 9 -21 18 -25 52 -24 23 1 32 3 21 6
-11 3 -24 10 -30 15 -7 8 -5 9 8 5 11 -4 17 -1 17 7 0 8 9 16 19 19 26 6 23
64 -3 59 -9 -2 -16 2 -16 8 0 5 3 10 8 10 10 0 7 76 -4 92 -5 7 -18 39 -29 71
-10 31 -22 57 -27 57 -11 0 -10 -28 2 -35 12 -8 13 -55 1 -55 -4 0 -19 21 -33
47 -14 27 -35 67 -48 91 -26 49 -40 61 -41 35 0 -14 -3 -12 -10 6 -6 16 -6 28
0 34 5 5 7 16 4 24 -4 11 -8 9 -17 -8 -6 -12 -17 -24 -25 -27 -9 -3 -11 0 -6
8 4 7 2 16 -6 21 -12 8 -12 11 1 18 10 7 17 6 23 -2 4 -7 5 1 1 17 -6 23 -4
27 7 21 11 -7 12 -6 3 6 -29 37 -16 97 15 66 8 -8 11 -8 11 1 0 7 4 12 10 12
6 0 5 -9 -1 -24 -10 -20 -8 -28 10 -47 18 -20 21 -20 27 -5 3 9 2 22 -4 29
-22 27 -34 168 -15 174 19 7 44 -78 58 -192 1 -11 9 -37 18 -58 9 -21 18 -54
20 -73 4 -33 27 -73 27 -46 0 7 12 12 26 12 19 0 25 -4 21 -14 -4 -10 -1 -13
9 -9 9 3 14 20 14 49 0 36 -3 44 -18 44 -18 0 -62 42 -62 59 0 11 42 6 69 -8
11 -7 21 -20 21 -29 0 -10 7 -28 16 -40 15 -21 15 -25 0 -41 -28 -31 -20 -51
19 -51 26 0 35 4 36 18 5 57 6 71 13 113 10 69 1 96 -35 97 -20 0 -29 -4 -29
-15 0 -12 -3 -13 -14 -3 -11 8 -12 18 -6 36 8 20 6 24 -8 24 -11 0 -17 8 -17
23 -1 12 -4 37 -8 55 -4 18 -3 31 2 28 5 -3 14 1 21 9 20 24 49 18 62 -12 6
-16 10 -34 9 -40 -1 -7 2 -13 8 -13 5 0 17 -7 25 -16 9 -8 17 -11 17 -5 1 6 2
14 3 19 2 4 6 30 11 57 4 28 11 55 15 60 5 6 10 26 11 45 3 29 1 34 -14 32 -9
-2 -17 3 -18 10 0 7 -4 4 -9 -7 -5 -11 -9 -14 -9 -7 -1 13 -36 52 -47 52 -9 0
-54 53 -54 64 0 7 -9 18 -60 75 -9 9 -26 33 -39 54 -12 20 -28 40 -34 44 -7 5
-25 27 -40 51 -15 23 -32 42 -38 42 -5 0 -7 4 -4 10 3 5 0 7 -8 4 -8 -3 -20 2
-27 11 -8 10 -9 15 -1 15 6 0 11 7 11 15 0 8 5 15 10 15 6 0 10 -5 10 -11 0
-5 4 -7 10 -4 5 3 10 1 10 -4 0 -14 69 -43 83 -34 5 3 7 1 3 -5 -3 -6 -2 -13
4 -17 5 -3 10 -14 10 -23 0 -9 14 -30 30 -46 17 -16 30 -33 30 -37 0 -5 15
-12 33 -17 25 -7 35 -5 44 7 10 14 13 14 30 -2 28 -25 43 -21 43 12 0 42 19
89 29 72 5 -7 19 -11 31 -9 39 5 33 -18 -18 -69 -49 -49 -74 -93 -53 -93 6 0
11 -17 11 -37 0 -43 5 -52 41 -75 33 -21 45 -12 54 37 4 22 14 51 21 65 7 14
25 50 39 81 26 59 61 106 71 96 3 -3 -13 -43 -36 -89 -41 -83 -80 -185 -80
-211 0 -8 18 -28 40 -46 44 -35 80 -35 80 0 0 11 5 28 10 39 5 11 14 29 20 39
5 11 6 32 1 48 -10 33 8 60 28 40 8 -8 11 -5 11 11 0 11 -6 25 -13 29 -29 17
-30 83 -1 83 19 0 18 -10 -4 -26 -16 -13 -16 -13 3 -14 14 0 25 -10 32 -30 7
-20 18 -30 32 -30 23 0 37 -16 19 -23 -7 -3 -3 -6 8 -6 16 -1 24 -10 31 -40
10 -36 9 -38 -11 -33 -19 5 -19 4 -7 -11 11 -14 11 -20 1 -32 -10 -12 -10 -18
0 -30 16 -19 -5 -105 -26 -105 -8 0 -14 -4 -14 -10 0 -5 -7 -10 -16 -10 -10 0
-14 6 -11 14 6 14 -12 26 -38 26 -12 0 -11 -6 1 -35 11 -26 12 -41 4 -55 -7
-14 -7 -20 0 -20 5 0 10 4 10 10 0 5 6 7 14 4 16 -6 27 -49 15 -61 -5 -5 -6
-19 -2 -31 4 -17 10 -21 26 -16 16 5 19 3 14 -10 -4 -9 -2 -16 4 -16 7 0 9
-20 4 -62 -6 -52 -5 -60 8 -55 21 8 29 -3 15 -20 -7 -9 -8 -17 -2 -21 15 -11
44 -60 44 -75 0 -7 6 -21 13 -30 11 -15 14 -14 36 4 21 17 23 23 13 40 -7 11
-8 19 -2 19 5 0 10 -4 10 -10 0 -24 38 -8 52 23 14 27 17 29 23 14 5 -11 1
-25 -9 -36 -22 -25 -20 -48 7 -66 15 -10 23 -24 22 -42 0 -25 -4 -28 -31 -26
-30 3 -32 1 -42 -50 -7 -37 -7 -56 1 -65 8 -10 7 -12 -4 -10 -20 4 -25 -129
-6 -156 16 -22 44 -16 53 11 3 10 10 26 15 35 12 23 12 51 -1 43 -5 -3 -10 2
-10 12 0 18 37 49 53 45 4 -1 13 11 18 28 6 16 16 30 22 30 6 0 2 7 -9 16 -10
8 -13 13 -6 9 7 -4 12 0 12 10 0 9 -4 14 -9 10 -10 -6 -41 49 -41 72 0 20 27
16 42 -6 14 -19 14 -19 26 -1 6 11 8 22 3 25 -12 7 2 58 18 63 9 3 11 -5 6
-32 -6 -31 -5 -35 9 -30 9 3 16 15 16 26 0 36 27 73 54 76 35 3 33 -17 -4 -53
l-30 -29 55 -53 c30 -29 55 -58 55 -64 0 -6 9 -8 21 -4 18 6 20 4 14 -15 -7
-23 13 -53 49 -72 17 -9 18 -7 11 28 -20 110 -14 134 23 84 12 -16 22 -34 22
-39 0 -17 23 -61 32 -61 4 0 8 12 8 26 0 15 8 33 18 40 22 17 2 33 -34 26 -37
-7 -30 13 30 83 35 41 56 76 61 101 9 51 24 25 18 -32 -2 -24 0 -44 5 -44 14
0 30 94 20 120 -5 13 -7 25 -5 27 2 2 32 4 66 5 34 1 64 5 67 10 3 4 15 13 26
19 20 11 21 9 14 -22 l-6 -33 20 22 c11 12 27 19 35 16 8 -4 15 -1 15 6 0 8 9
11 25 8 14 -3 25 -1 25 4 0 6 7 7 15 4 8 -3 22 -9 30 -12 10 -4 15 0 15 11 0
9 5 13 10 10 6 -4 17 -1 25 5 12 10 19 10 32 -1 13 -11 17 -11 20 -1 3 6 18
12 34 12 16 0 44 6 62 13 18 8 38 12 45 10 14 -5 16 -33 2 -33 -5 0 -10 -9
-10 -20 0 -11 -4 -20 -10 -20 -5 0 -10 -6 -10 -13 0 -8 -18 -31 -40 -53 -45
-44 -53 -69 -17 -59 12 4 25 10 29 14 13 13 48 82 48 96 0 8 4 15 9 15 6 0 20
18 32 39 20 35 53 61 80 61 6 0 23 8 37 19 15 10 43 22 62 26 19 4 41 11 50
16 23 12 54 23 66 24 6 0 18 5 25 11 30 24 173 34 193 14 15 -15 26 -12 26 8
0 15 2 15 11 2 8 -11 9 6 6 61 -2 47 -10 85 -20 99 -8 12 -13 29 -10 36 3 8 0
21 -7 29 -6 8 -9 19 -5 25 3 5 2 10 -4 10 -6 0 -8 7 -5 15 4 10 0 15 -11 15
-15 0 -17 6 -11 40 3 22 3 40 -1 40 -3 0 -19 -15 -34 -32 -22 -25 -31 -30 -37
-20 -7 10 -11 10 -21 -2 -7 -8 -28 -20 -47 -26 -18 -6 -43 -24 -54 -40 l-20
-28 21 5 c19 5 20 3 13 -33 -7 -40 -33 -94 -45 -94 -4 0 -14 -3 -22 -6 -14 -5
-29 22 -31 59 -1 10 -8 22 -16 28 -12 8 -10 9 8 4 16 -5 22 -2 22 10 0 9 18
38 40 64 22 26 40 52 40 58 0 6 16 23 35 37 33 26 47 56 25 56 -5 0 -10 -5
-10 -10 0 -15 -50 -60 -66 -60 -21 0 -17 16 11 46 14 15 25 29 25 30 0 11 -22
1 -39 -17 -11 -12 -21 -16 -25 -10 -4 5 -2 12 4 16 6 4 8 11 4 16 -4 7 12 10
43 8 34 -2 57 3 73 14 14 9 39 17 56 17 17 0 42 8 55 18 13 10 32 21 42 25 25
9 38 51 40 134 2 72 10 86 35 61 9 -9 12 -9 12 0 0 7 -11 17 -25 22 -14 5 -25
14 -25 21 0 6 3 9 8 7 4 -2 21 -10 37 -17 17 -7 37 -17 46 -22 21 -10 52 20
40 40 -6 9 -11 10 -15 2 -12 -19 -36 -12 -36 10 0 18 5 21 30 17 26 -4 29 -2
24 14 -4 14 0 21 15 25 24 6 28 21 6 29 -12 5 -12 9 2 31 13 20 23 24 50 21
l34 -4 -3 60 c-2 46 -7 61 -18 61 -17 0 -31 15 -24 27 3 4 14 8 25 8 17 0 19
8 19 85 0 80 -1 85 -22 85 -20 0 -20 1 -5 18 13 14 14 21 5 30 -9 9 -8 12 5
12 20 0 23 25 5 36 -17 11 -69 6 -84 -7 -8 -6 -31 -8 -57 -4 -29 5 -47 3 -51
-4 -11 -16 -46 -13 -46 4 0 16 -15 20 -24 7 -3 -5 -27 -9 -53 -9 -26 1 -38 2
-26 4 29 5 53 33 29 33 -10 0 -26 -5 -37 -10 -13 -8 -31 -8 -56 -1 -24 7 -42
7 -54 0 -11 -5 -65 -12 -120 -14 -56 -3 -120 -10 -142 -16 -23 -6 -71 -12
-107 -14 -36 -1 -78 -8 -95 -15 -16 -7 -60 -14 -97 -16 -36 -1 -80 -10 -97
-19 -17 -8 -41 -13 -54 -10 -15 4 -28 1 -37 -9 -16 -20 -111 -49 -133 -40 -12
4 -22 -3 -34 -25 -13 -24 -23 -30 -38 -26 -11 2 -26 5 -33 5 -8 0 -10 5 -6 12
10 16 6 70 -6 82 -7 7 -10 6 -10 -2 0 -7 -12 -12 -27 -12 l-26 0 21 -23 c26
-27 30 -47 5 -22 -11 12 -25 15 -46 11 -16 -3 -36 -6 -43 -6 -12 0 -14 -19
-11 -100 4 -87 2 -101 -14 -116 -10 -9 -17 -20 -14 -24 11 -18 -59 -190 -77
-190 -6 0 -8 -12 -5 -30 4 -16 2 -32 -3 -35 -6 -3 -10 -15 -10 -25 0 -10 -7
-25 -15 -32 -43 -39 -43 -39 -69 -15 -39 34 -43 71 -12 102 14 14 26 32 26 40
0 8 4 16 9 20 6 3 6 18 0 38 -5 17 -7 44 -3 59 3 15 5 30 4 34 -1 3 7 12 17
19 16 12 16 15 2 32 -22 25 -30 63 -18 85 7 13 6 27 -5 48 -8 17 -11 32 -7 34
12 8 0 69 -16 87 -12 15 -11 19 12 37 14 11 39 24 55 27 45 10 36 22 -21 27
-61 6 -133 -13 -137 -36 -2 -9 -9 -16 -17 -16 -7 0 -20 -11 -29 -25 -9 -14
-25 -25 -36 -25 -11 0 -20 -4 -20 -8 0 -4 -18 -19 -40 -32 -44 -28 -47 -35
-24 -48 22 -12 8 -35 -17 -29 -24 6 -42 -17 -34 -43 4 -14 2 -20 -8 -20 -8 0
-17 9 -20 19 -3 14 -11 18 -26 14 -13 -3 -21 -1 -21 7 0 6 -9 25 -20 40 -11
15 -22 44 -24 64 -7 48 -45 100 -63 85 -7 -6 -10 -15 -8 -20 3 -4 -3 -17 -15
-29 -11 -11 -20 -26 -20 -32 0 -7 -23 -28 -50 -46 -28 -17 -50 -37 -50 -42 0
-6 -9 -10 -20 -10 -11 0 -20 5 -20 10 0 6 -6 10 -14 10 -8 0 -16 6 -19 13 -7
21 -47 -23 -47 -54 0 -25 3 -27 40 -25 22 1 40 -1 40 -6 0 -4 7 -8 15 -8 8 0
15 -7 15 -16 0 -10 -6 -14 -14 -11 -18 7 -36 -11 -29 -29 3 -8 -1 -14 -11 -14
-9 0 -16 -7 -16 -15 0 -8 -8 -15 -19 -15 -10 0 -24 -7 -31 -15 -10 -13 -9 -15
9 -15 11 0 21 -4 21 -9 0 -5 -25 -1 -56 10 -51 18 -58 19 -80 4 -31 -20 -47
-19 -69 5 -13 14 -16 29 -12 54 8 50 -1 73 -38 96 -41 26 -95 26 -138 0 -39
-23 -50 -57 -35 -102 7 -21 7 -37 -1 -54 -26 -59 -90 1 -120 113 -11 40 -15
44 -57 54 -34 9 -48 18 -55 38 -8 20 -12 22 -19 11 -8 -12 -10 -11 -10 6 0 12
-6 27 -14 33 -8 6 -16 22 -19 34 -9 38 -44 124 -61 148 -19 28 -21 99 -4 181
12 58 23 72 34 43 8 -19 23 -19 45 1 9 8 30 17 45 18 23 3 28 8 26 26 -2 17 2
20 18 15 11 -3 20 -2 20 3 0 5 11 14 24 21 13 7 33 32 45 55 23 48 47 72 75
77 11 2 21 11 23 19 4 12 3 13 -5 1 -6 -9 -17 -11 -28 -7 -18 7 -18 8 0 21 10
8 23 12 27 9 14 -8 11 -1 -23 72 -66 142 -146 247 -195 257 -31 6 -88 -40 -97
-79 -4 -15 -9 -24 -11 -22 -10 9 17 79 41 108 30 35 70 40 100 13 23 -21 132
-171 193 -265 23 -37 49 -73 58 -79 8 -8 38 -13 69 -12 68 2 141 41 156 84 5
16 14 29 18 29 5 0 12 9 15 20 3 11 11 20 17 20 6 0 7 -7 3 -17 -4 -10 -14
-36 -22 -58 -8 -22 -25 -51 -39 -66 -38 -40 -27 -59 32 -59 18 0 32 -11 52
-43 17 -28 41 -50 67 -62 117 -54 145 -68 156 -81 17 -21 27 -17 44 16 17 32
20 64 6 55 -17 -10 -25 37 -9 49 29 22 27 129 -2 111 -15 -9 -12 28 4 50 9 14
13 44 12 95 -2 62 -8 85 -32 129 -16 30 -40 63 -54 73 -36 26 -81 9 -125 -50
-27 -35 -35 -40 -35 -24 0 11 4 22 8 24 4 2 21 20 37 41 15 21 41 45 57 53 27
14 32 14 54 -1 25 -16 57 -63 86 -128 10 -20 24 -52 32 -70 8 -17 17 -43 19
-57 l4 -25 8 23 c5 15 10 20 15 12 4 -7 12 0 19 18 7 16 23 35 37 42 13 8 24
19 24 27 0 7 5 13 11 13 14 0 48 41 49 59 0 7 6 11 14 8 10 -4 13 -1 9 9 -3 7
0 14 7 14 7 0 26 15 44 34 17 18 43 36 59 40 15 3 27 13 27 21 0 8 5 15 10 15
6 0 10 7 10 15 0 13 -104 15 -880 15 l-880 0 0 -1266z m385 979 c-10 -83 -31
-128 -26 -58 1 22 22 95 27 95 2 0 1 -17 -1 -37z m775 -128 c-7 -9 -15 -13
-19 -10 -3 3 1 10 9 15 21 14 24 12 10 -5z m-744 -78 c7 -22 -1 -32 -24 -32
-24 0 -18 -59 9 -86 19 -19 23 -55 5 -50 -5 2 -12 -3 -16 -9 -10 -16 -33 -2
-26 15 2 7 0 17 -6 23 -10 10 -9 151 1 221 2 9 51 -63 57 -82z m190 46 c-7 -7
-26 7 -26 19 0 6 6 6 15 -2 9 -7 13 -15 11 -17z m-86 -793 c0 -5 -2 -10 -4
-10 -3 0 -8 5 -11 10 -3 6 -1 10 4 10 6 0 11 -4 11 -10z m1033 -14 c25 -19 21
-27 -10 -20 l-27 7 17 -26 c10 -15 16 -28 15 -28 -2 -1 -15 -3 -30 -5 -22 -2
-28 1 -28 17 0 20 27 69 39 69 3 0 14 -7 24 -14z m1267 -11 c0 -17 -2 -18 -24
-9 -23 9 -20 24 4 24 11 0 20 -7 20 -15z m84 -7 c7 -30 -6 -41 -29 -24 -11 8
-16 19 -12 30 9 23 34 20 41 -6z m-147 -20 c-3 -7 -5 -2 -5 12 0 14 2 19 5 13
2 -7 2 -19 0 -25z m835 17 c17 7 56 -20 45 -31 -4 -4 -12 -3 -18 3 -6 6 -26 7
-50 3 -43 -8 -44 -8 -27 20 8 13 16 16 24 9 6 -5 18 -7 26 -4z m-3008 -20 c3
-8 1 -15 -4 -15 -6 0 -10 7 -10 15 0 8 2 15 4 15 2 0 6 -7 10 -15z m2120 4
l39 -11 -31 -28 c-17 -15 -28 -31 -24 -34 3 -4 -1 -4 -11 -1 -14 6 -15 9 -2
22 22 21 18 33 -9 33 -14 0 -28 5 -31 11 -4 6 -13 8 -21 5 -8 -3 -14 -1 -14 4
0 13 55 13 104 -1z m93 -64 c-1 -43 -7 -44 -35 -6 -23 32 -20 41 14 41 19 0
22 -5 21 -35z m-161 7 c-8 -8 -19 -11 -25 -8 -20 13 -12 26 14 24 21 -2 23 -4
11 -16z m896 -10 c-9 -6 -6 -14 13 -30 31 -27 32 -40 3 -44 -15 -2 -24 -11
-26 -25 -5 -36 -30 -27 -38 14 -5 26 -3 39 8 47 8 6 17 19 21 29 3 9 12 17 19
17 10 0 10 -2 0 -8z m-2916 -27 c3 -14 10 -25 15 -25 5 0 9 -4 9 -10 0 -32
-49 10 -50 43 0 26 19 20 26 -8z m2144 -27 c0 -19 -2 -20 -10 -8 -13 19 -13
30 0 30 6 0 10 -10 10 -22z m59 -29 c-14 -8 -29 -3 -29 11 0 4 9 6 21 3 15 -4
17 -8 8 -14z m159 2 c8 -4 13 -12 13 -17 -1 -5 5 -9 11 -9 7 0 14 -8 16 -17 2
-12 -3 -18 -16 -18 -37 0 -32 -35 9 -58 23 -13 40 -18 44 -12 8 13 62 13 70 0
4 -6 -5 -10 -20 -10 -17 0 -25 -5 -22 -12 8 -27 -123 -64 -157 -46 -15 8 -21
8 -24 -1 -5 -14 -52 -15 -52 -1 0 6 6 11 13 11 22 2 32 5 61 17 16 7 27 14 25
17 -3 2 -31 6 -63 8 -42 3 -59 1 -63 -9 -9 -24 -40 -17 -39 9 1 17 -4 21 -21
19 -27 -4 -30 6 -6 23 11 8 24 10 33 5 9 -5 34 -10 56 -12 21 -2 42 -7 45 -12
9 -12 61 2 54 14 -3 5 -12 7 -19 4 -8 -3 -17 -1 -20 4 -3 5 9 12 27 16 24 5
28 9 17 16 -8 5 -17 7 -21 4 -4 -2 -30 1 -57 6 -47 11 -49 12 -39 35 10 19 17
22 46 17 24 -4 32 -2 27 6 -9 14 51 16 72 3z m-2328 -27 c0 -14 -3 -14 -15 -4
-8 7 -15 14 -15 16 0 2 7 4 15 4 8 0 15 -7 15 -16z m993 -14 l29 -30 -29 -1
c-27 0 -27 -1 -5 -11 31 -15 28 -25 -7 -24 -30 1 -50 29 -29 42 5 3 7 17 4 30
-8 32 3 30 37 -6z m49 22 c-7 -5 -10 -16 -6 -28 6 -18 6 -18 -9 1 -15 20 -7
35 18 35 6 0 4 -4 -3 -8z m1568 -102 c0 -5 -2 -10 -4 -10 -3 0 -8 5 -11 10 -3
6 -1 10 4 10 6 0 11 -4 11 -10z m-1615 -47 c0 -6 3 -15 8 -19 12 -12 8 -24 -8
-24 -8 0 -20 9 -27 20 -7 11 -18 20 -25 20 -6 0 -14 4 -18 10 -3 5 10 8 32 7
21 -1 38 -7 38 -14z m162 -50 c-3 -2 -14 4 -25 15 -15 15 -17 23 -9 31 8 8 15
4 25 -15 7 -14 11 -28 9 -31z m-257 37 c0 -5 -4 -10 -10 -10 -5 0 -10 5 -10
10 0 6 5 10 10 10 6 0 10 -4 10 -10z m1830 -15 c-7 -8 -18 -15 -24 -15 -6 0
-2 7 8 15 25 19 32 19 16 0z m-2100 -15 c11 -7 12 -12 3 -21 -8 -8 -14 -6 -22
10 -12 22 -5 27 19 11z m265 0 c3 -5 -1 -10 -9 -10 -9 0 -16 5 -16 10 0 6 4
10 9 10 6 0 13 -4 16 -10z m665 -5 c0 -13 -30 -62 -45 -75 -27 -22 -27 -4 -1
39 23 35 46 53 46 36z m1120 -10 c0 -8 -4 -15 -10 -15 -5 0 -10 7 -10 15 0 8
5 15 10 15 6 0 10 -7 10 -15z m-1695 -46 c9 -13 7 -15 -34 -23 -29 -5 -32 -4
-21 9 10 12 10 19 2 27 -7 7 -12 16 -12 20 0 10 56 -18 65 -33z m71 17 c10 3
28 10 39 15 14 7 30 7 48 0 23 -9 27 -16 25 -42 -4 -39 17 -50 26 -14 5 18 13
25 31 25 13 0 27 -5 31 -11 4 -8 9 -7 15 2 6 10 11 5 20 -16 14 -33 12 -67 -3
-76 -7 -4 -6 -9 1 -13 14 -9 14 -43 1 -51 -6 -4 -19 -4 -28 0 -9 4 -30 9 -46
11 -16 2 -35 9 -43 15 -10 9 -13 6 -13 -18 0 -16 4 -33 9 -38 5 -6 11 -21 13
-35 2 -18 10 -26 31 -30 l29 -5 -21 -24 c-11 -13 -18 -28 -15 -33 3 -5 3 -16
0 -25 -6 -14 -9 -14 -26 2 -24 22 -27 43 -3 24 14 -12 16 -12 11 1 -3 9 -15
14 -30 12 -16 -1 -25 3 -25 12 0 8 6 12 14 9 7 -3 13 2 13 10 0 9 -9 19 -20
22 -11 3 -20 13 -20 21 0 19 -16 18 -24 -2 -4 -9 1 -27 9 -40 14 -21 14 -24 0
-24 -25 0 -17 -17 15 -30 17 -7 30 -15 30 -19 0 -3 12 -19 27 -35 l26 -28 13
23 c10 19 13 20 14 7 0 -11 8 -18 20 -18 14 0 21 9 26 35 3 19 2 41 -3 48 -5
6 -10 26 -12 42 -1 17 -7 34 -12 40 -12 12 -11 42 1 50 24 15 36 -14 32 -74
-4 -58 -3 -60 22 -67 14 -3 26 -13 26 -21 0 -8 10 -36 23 -62 13 -25 27 -71
30 -102 4 -31 14 -75 22 -99 13 -38 13 -46 -1 -77 -12 -24 -15 -48 -11 -85 6
-49 6 -50 -18 -45 -14 2 -25 0 -25 -5 0 -5 -20 7 -44 26 -23 20 -52 36 -62 36
-30 0 -64 12 -64 21 0 5 11 7 25 3 19 -5 25 -2 25 10 0 9 -8 16 -19 16 -11 0
-22 4 -25 8 -2 4 12 7 32 5 20 -2 31 0 25 3 -7 3 -13 14 -13 24 0 10 -6 20
-12 23 -10 4 -10 7 0 18 10 11 12 10 12 -4 0 -9 5 -17 10 -17 6 0 10 7 10 15
0 9 10 15 23 16 20 1 19 2 -8 14 -16 8 -40 14 -52 15 -12 0 -23 6 -26 13 -2 6
-8 0 -12 -15 -4 -14 -15 -28 -26 -31 -11 -3 -19 -14 -19 -25 0 -11 -7 -28 -16
-36 -9 -10 -13 -24 -9 -36 3 -11 2 -20 -4 -20 -5 0 -12 -13 -16 -30 -10 -45
-29 -51 -21 -7 6 30 4 36 -8 31 -7 -3 -17 0 -22 7 -9 15 23 40 42 32 8 -3 15
0 15 6 2 14 4 21 12 44 14 36 16 47 9 47 -13 -1 -42 -27 -42 -39 0 -7 -5 -9
-10 -6 -6 4 -7 11 -4 17 4 6 -1 8 -15 3 -12 -4 -21 -2 -21 4 0 6 6 11 13 11
16 1 52 28 45 35 -3 3 -16 1 -30 -4 -15 -5 -30 -6 -39 0 -11 7 -9 9 7 9 15 0
23 8 26 25 6 29 0 32 -18 8 -13 -17 -16 -15 -44 17 -26 29 -32 33 -41 20 -8
-11 -12 -12 -16 -2 -2 6 -15 12 -28 12 -27 0 -40 25 -21 42 7 7 11 22 8 34 -3
19 -1 22 17 17 12 -3 21 -1 21 6 0 6 9 11 20 11 11 0 20 4 20 9 0 15 -18 23
-25 11 -9 -14 -25 -12 -25 3 0 24 25 67 37 63 14 -6 26 21 13 29 -13 8 -13 55
0 55 5 0 13 -6 17 -13 4 -8 21 -17 37 -21 23 -6 27 -4 23 8 -4 10 1 16 15 18
30 4 33 23 5 35 -16 7 -29 8 -41 1 -14 -8 -23 -5 -40 12 l-21 22 23 -7 c21 -6
23 -4 20 21 -2 15 2 29 10 31 8 3 12 -6 12 -26 0 -23 4 -29 15 -25 8 4 21 1
29 -5 7 -6 21 -8 31 -5 15 6 16 3 10 -17 -4 -13 -4 -21 1 -16 13 12 22 111 12
130 -5 10 -25 25 -44 33 -37 16 -46 30 -13 21 13 -3 19 -1 16 6 -2 7 -12 11
-23 10 -26 -2 -54 15 -54 34 0 15 2 15 19 -1 11 -10 26 -14 37 -10z m1684 -2
c0 -16 -23 -44 -36 -44 -13 0 -12 4 3 25 17 23 33 32 33 19z m-2115 -17 c7 -8
10 -19 6 -25 -4 -6 -11 -1 -18 14 -12 27 -8 31 12 11z m230 -7 c3 -5 1 -10 -4
-10 -6 0 -11 5 -11 10 0 6 2 10 4 10 3 0 8 -4 11 -10z m1825 -10 c0 -5 -7 -7
-15 -4 -8 4 -12 10 -9 15 6 11 24 2 24 -11z m-41 -4 c-11 -11 -79 -17 -79 -8
0 6 17 12 38 14 37 3 49 1 41 -6z m-100 -10 c9 -10 8 -15 -3 -19 -8 -3 -16 2
-19 14 -6 22 6 25 22 5z m-1069 -31 c-7 -8 -16 -15 -21 -15 -13 0 -11 24 3 38
18 18 35 -3 18 -23z m-653 -26 c-3 -11 2 -19 16 -23 17 -4 18 -7 7 -21 -12
-14 -15 -14 -30 3 -22 23 -24 73 -3 65 8 -3 13 -14 10 -24z m73 15 c0 -2 -7
-4 -15 -4 -8 0 -15 4 -15 10 0 5 7 7 15 4 8 -4 15 -8 15 -10z m-300 2 c0 -3
-4 -8 -10 -11 -5 -3 -10 -1 -10 4 0 6 5 11 10 11 6 0 10 -2 10 -4z m-1065 -46
c8 -16 28 -45 44 -63 27 -30 53 -107 36 -107 -14 0 -91 86 -87 98 2 6 0 12 -5
12 -14 0 -45 60 -39 76 9 24 35 16 51 -16z m3090 20 c-3 -5 -10 -10 -16 -10
-5 0 -9 5 -9 10 0 6 7 10 16 10 8 0 12 -4 9 -10z m-1392 -91 c3 -13 1 -19 -6
-16 -15 5 -22 37 -9 37 5 0 12 -9 15 -21z m-1289 -69 c4 -28 3 -58 -2 -68 -5
-9 -7 -23 -4 -31 3 -8 -1 -12 -9 -9 -15 5 -43 123 -35 145 3 7 14 13 24 13 16
0 21 -10 26 -50z m-74 15 c0 -8 -4 -15 -10 -15 -5 0 -10 7 -10 15 0 8 5 15 10
15 6 0 10 -7 10 -15z m857 -37 c-3 -8 -6 -5 -6 6 -1 11 2 17 5 13 3 -3 4 -12
1 -19z m-867 -62 c0 -3 -4 -8 -10 -11 -5 -3 -10 -1 -10 4 0 6 5 11 10 11 6 0
10 -2 10 -4z m1415 -6 c3 -5 1 -10 -4 -10 -6 0 -11 5 -11 10 0 6 2 10 4 10 3
0 8 -4 11 -10z m-1485 -35 c-7 -8 -17 -15 -22 -15 -11 0 14 29 26 30 5 0 3 -7
-4 -15z m208 3 c-6 -18 -28 -21 -28 -4 0 9 7 16 16 16 9 0 14 -5 12 -12z
m1639 -32 c-1 -24 -6 -42 -12 -39 -10 3 -35 -83 -35 -120 0 -22 30 -22 31 1 0
9 2 25 4 35 2 9 -1 15 -6 11 -5 -3 -9 2 -9 12 0 15 2 15 26 -1 l26 -17 -7 41
c-6 34 -4 41 9 41 9 0 16 -5 16 -10 0 -6 9 -20 20 -32 11 -12 26 -34 32 -50 7
-15 16 -28 20 -28 3 0 4 -8 2 -17 -6 -25 10 -46 31 -41 17 3 18 4 2 20 -9 9
-17 20 -17 23 0 15 -35 80 -52 97 -17 17 -25 48 -12 48 3 0 14 -5 25 -10 14
-8 19 -7 19 1 0 8 4 8 15 -1 8 -6 19 -9 25 -5 5 3 24 -7 42 -24 36 -34 51 -34
20 -1 -20 21 -20 50 0 50 5 0 7 -4 3 -9 -6 -10 46 -51 64 -51 19 0 61 -32 55
-41 -3 -5 -17 -6 -31 -3 -21 6 -24 4 -17 -7 6 -10 0 -8 -19 4 -34 22 -40 22
-32 -4 7 -20 6 -20 -19 -4 -25 17 -26 17 -20 -1 4 -11 12 -26 18 -34 6 -8 -2
-4 -17 9 -32 29 -45 22 -23 -11 19 -28 12 -95 -8 -80 -16 13 -56 21 -56 12 0
-12 -62 -49 -80 -48 -45 3 -70 -3 -70 -17 0 -41 -70 2 -101 62 -23 46 -23 43
2 43 34 0 51 24 37 54 -8 20 -8 32 0 51 7 14 12 39 12 55 0 17 5 30 10 30 6 0
10 -5 10 -11 0 -5 5 -7 10 -4 6 3 10 14 10 24 0 20 19 41 37 41 8 0 11 -14 10
-44z m813 18 c0 -8 -4 -12 -10 -9 -5 3 -10 10 -10 16 0 5 5 9 10 9 6 0 10 -7
10 -16z m154 -18 c-6 -16 -24 -23 -24 -8 0 10 22 33 27 28 2 -2 1 -11 -3 -20z
m-2734 -13 c0 -10 -6 -12 -22 -7 -29 8 -31 11 -24 22 9 15 46 2 46 -15z m2535
-3 c3 -5 1 -10 -4 -10 -6 0 -11 5 -11 10 0 6 2 10 4 10 3 0 8 -4 11 -10z
m-2595 -9 c0 -5 12 -11 28 -13 23 -4 24 -5 9 -12 -20 -10 -70 11 -61 26 7 11
24 10 24 -1z m180 -5 c0 -18 -17 -29 -30 -21 -8 5 -7 11 1 21 15 18 29 18 29
0z m25 4 c3 -5 1 -10 -4 -10 -6 0 -11 5 -11 10 0 6 2 10 4 10 3 0 8 -4 11 -10z
m1975 -34 c0 -5 -8 -2 -18 7 -10 10 -24 17 -31 17 -7 0 -9 5 -6 10 7 11 54
-19 55 -34z m-1735 -14 c-8 -8 -25 10 -25 26 0 13 2 13 14 -4 8 -10 13 -21 11
-22z m-511 -7 c-4 -8 -10 -12 -15 -9 -14 8 -10 24 6 24 9 0 12 -6 9 -15z m411
-6 c5 -14 2 -25 -6 -30 -22 -14 -26 -11 -21 21 5 35 18 39 27 9z m95 -54 c0
-16 -3 -14 -15 9 -19 36 -19 56 0 30 8 -10 14 -28 15 -39z m227 23 c-3 -7 -5
-2 -5 12 0 14 2 19 5 13 2 -7 2 -19 0 -25z m-517 -2 c0 -8 -4 -18 -10 -21 -5
-3 -10 3 -10 14 0 12 5 21 10 21 6 0 10 -6 10 -14z m-157 -7 c-8 -8 -16 -8
-30 0 -16 9 -14 10 12 11 21 0 26 -3 18 -11z m1057 -9 c0 -5 -4 -10 -10 -10
-5 0 -10 5 -10 10 0 6 5 10 10 10 6 0 10 -4 10 -10z m-570 -10 c0 -5 -2 -10
-4 -10 -3 0 -8 5 -11 10 -3 6 -1 10 4 10 6 0 11 -4 11 -10z m-323 -65 c2 -13
-1 -26 -7 -30 -6 -4 -10 8 -10 31 0 40 12 39 17 -1z m891 16 c3 -8 -1 -12 -9
-9 -7 2 -15 10 -17 17 -3 8 1 12 9 9 7 -2 15 -10 17 -17z m-797 -91 c5 0 9 -5
9 -11 0 -5 -4 -8 -9 -4 -5 3 -12 1 -16 -5 -9 -14 -25 -3 -25 17 0 10 6 13 16
9 9 -3 20 -6 25 -6z m924 -19 c11 -22 12 -32 4 -37 -15 -9 -49 35 -42 53 8 21
21 15 38 -16z m182 13 c-3 -3 -12 -4 -19 -1 -8 3 -5 6 6 6 11 1 17 -2 13 -5z
m-1237 -14 c0 -5 -4 -10 -10 -10 -5 0 -10 5 -10 10 0 6 5 10 10 10 6 0 10 -4
10 -10z m-342 -55 c2 -16 8 -35 13 -41 9 -11 2 -24 -13 -24 -5 0 -14 11 -20
25 -6 14 -17 25 -24 25 -20 0 -27 19 -13 36 21 25 54 13 57 -21z m-84 -4 c3
-5 -1 -14 -10 -21 -11 -10 -18 -10 -27 -1 -9 9 -9 14 3 21 19 12 27 12 34 1z
m1766 -10 c-5 -11 -7 -28 -3 -38 6 -16 5 -16 -10 -4 -15 12 -20 11 -40 -6 -33
-30 -47 -36 -47 -20 0 23 44 67 67 67 12 0 25 5 28 10 11 18 16 10 5 -9z m198
-54 c2 -20 0 -37 -5 -37 -12 0 -35 58 -28 70 13 21 30 3 33 -33z m-1308 -7 c0
-5 -5 -10 -11 -10 -5 0 -7 5 -4 10 3 6 8 10 11 10 2 0 4 -4 4 -10z m-420 -57
c0 -42 -1 -45 -14 -28 -8 11 -12 25 -10 32 11 37 14 43 19 43 3 0 5 -21 5 -47z
m-210 33 c0 -3 -4 -8 -10 -11 -5 -3 -10 -1 -10 4 0 6 5 11 10 11 6 0 10 -2 10
-4z m-89 -21 c0 -5 -9 -11 -21 -13 -20 -3 -27 8 -13 22 10 9 34 3 34 -9z
m2033 -15 c16 -6 26 -17 26 -29 0 -20 0 -20 -35 0 -52 31 -46 50 9 29z m-1997
-42 c-3 -7 -5 -2 -5 12 0 14 2 19 5 13 2 -7 2 -19 0 -25z m668 2 c3 -5 1 -10
-4 -10 -6 0 -11 5 -11 10 0 6 2 10 4 10 3 0 8 -4 11 -10z m23 -58 c2 -14 -2
-22 -11 -22 -17 0 -26 19 -19 38 7 19 27 9 30 -16z m122 -109 c0 -20 -24 -11
-28 10 -2 12 1 15 12 11 9 -3 16 -13 16 -21z m50 -23 c0 -5 -4 -10 -10 -10 -5
0 -10 5 -10 10 0 6 5 10 10 10 6 0 10 -4 10 -10z m730 -5 c0 -9 -6 -12 -15 -9
-8 4 -15 10 -15 15 0 5 7 9 15 9 8 0 15 -7 15 -15z"/>
<path d="M2970 2100 c-8 -5 -11 -12 -8 -16 10 -9 38 3 38 16 0 12 -10 13 -30
0z"/>
<path d="M1785 2010 c4 -6 11 -8 16 -5 14 9 11 15 -7 15 -8 0 -12 -5 -9 -10z"/>
<path d="M1792 1928 c6 -18 28 -21 28 -4 0 9 -7 16 -16 16 -9 0 -14 -5 -12
-12z"/>
<path d="M1785 1790 c3 -5 8 -10 11 -10 2 0 4 5 4 10 0 6 -5 10 -11 10 -5 0
-7 -4 -4 -10z"/>
<path d="M1700 1730 c0 -5 5 -10 10 -10 6 0 10 5 10 10 0 6 -4 10 -10 10 -5 0
-10 -4 -10 -10z"/>
<path d="M1680 1681 c0 -5 7 -14 15 -21 8 -7 15 -19 15 -26 0 -8 4 -14 8 -14
18 0 20 13 6 35 -16 24 -44 41 -44 26z"/>
<path d="M1628 1664 c-14 -13 4 -31 28 -26 23 4 35 22 15 22 -5 0 -16 2 -23 5
-8 3 -17 3 -20 -1z"/>
<path d="M1765 1631 c-3 -6 3 -18 13 -28 10 -10 26 -35 37 -55 l19 -37 14 29
c8 17 19 27 24 24 5 -3 2 -14 -7 -24 -9 -10 -19 -36 -22 -58 -5 -35 -2 -41 17
-47 30 -10 34 -3 36 66 1 50 -2 61 -18 70 -14 7 -23 7 -34 -2 -12 -9 -16 -6
-25 20 -12 33 -43 58 -54 42z"/>
<path d="M1727 1603 c-3 -4 3 -19 14 -32 18 -22 19 -22 19 -3 0 21 -25 48 -33
35z"/>
<path d="M1760 1530 c0 -5 5 -10 10 -10 6 0 10 5 10 10 0 6 -4 10 -10 10 -5 0
-10 -4 -10 -10z"/>
<path d="M1651 1504 c0 -11 3 -14 6 -6 3 7 2 16 -1 19 -3 4 -6 -2 -5 -13z"/>
<path d="M1775 1470 c3 -5 8 -10 11 -10 2 0 4 5 4 10 0 6 -5 10 -11 10 -5 0
-7 -4 -4 -10z"/>
<path d="M2300 1350 c0 -5 5 -10 11 -10 5 0 7 5 4 10 -3 6 -8 10 -11 10 -2 0
-4 -4 -4 -10z"/>
<path d="M2773 3700 c20 -4 48 -17 60 -28 13 -12 38 -25 56 -28 20 -4 28 -10
21 -14 -17 -11 -5 -27 33 -44 133 -58 171 -67 181 -43 3 8 9 7 20 -6 14 -18
56 -16 56 2 0 11 121 6 128 -5 4 -6 21 -16 38 -22 16 -7 41 -23 55 -35 14 -12
34 -27 45 -33 10 -6 23 -20 29 -32 10 -23 25 -29 25 -11 0 8 4 8 14 0 7 -6 11
-22 8 -36 -3 -17 0 -25 9 -25 8 -1 23 -8 34 -18 18 -15 20 -26 17 -94 -4 -67
-2 -78 12 -78 9 0 16 -4 16 -9 0 -16 -29 -33 -48 -27 -13 5 -22 -1 -32 -19
-13 -25 -40 -35 -40 -15 0 18 -17 10 -28 -12 -6 -13 -11 -17 -11 -10 -1 20
-31 14 -31 -6 0 -21 -38 -42 -75 -42 -13 0 -31 -7 -40 -17 -19 -19 -165 -33
-165 -16 0 6 -20 16 -44 23 -34 9 -49 9 -66 0 -33 -18 -109 -18 -120 0 -7 10
-12 11 -17 4 -10 -13 -46 -27 -39 -15 4 5 -3 7 -15 4 -11 -3 -31 0 -44 7 -20
11 -27 11 -40 0 -15 -13 -37 -3 -57 25 -4 6 -8 0 -8 -12 0 -34 -14 -28 -25 10
-8 24 -15 31 -30 29 -11 -2 -36 -4 -56 -6 -21 -1 -44 -8 -52 -14 -10 -9 -17
-10 -22 -2 -12 19 -23 10 -36 -27 -10 -31 -13 -34 -23 -20 -15 19 -39 7 -31
-15 8 -20 -13 -34 -28 -19 -15 15 -27 14 -27 -4 0 -8 5 -15 10 -15 6 0 10 -5
10 -10 0 -6 -14 -9 -31 -8 -27 3 -33 -1 -43 -27 -6 -17 -19 -31 -31 -33 -11
-2 -32 -8 -48 -14 -15 -6 -46 -8 -68 -5 -50 7 -83 -2 -53 -14 14 -6 10 -8 -16
-8 -21 0 -30 3 -23 7 7 5 -6 7 -30 6 -62 -3 -63 -3 -47 -14 12 -8 10 -10 -9
-10 -13 0 -21 -3 -17 -7 11 -11 202 -14 249 -3 26 5 46 5 51 -1 6 -5 27 -9 48
-9 21 0 96 -10 166 -22 129 -23 263 -27 312 -9 14 5 50 14 80 19 30 6 80 16
110 22 30 6 116 16 190 22 74 5 149 12 165 14 17 2 103 4 193 6 l162 2 0 438
0 438 -487 -1 c-269 -1 -471 -5 -450 -9z m-433 -889 c0 -5 -7 -11 -14 -14 -10
-4 -13 -1 -9 9 6 15 23 19 23 5z"/>
<path d="M834 3072 c-11 -10 -23 -28 -26 -40 -6 -23 20 -112 33 -112 29 0 46
112 24 152 -9 15 -11 15 -31 0z"/>
<path d="M674 2899 c-3 -6 -1 -16 5 -22 19 -19 13 -24 -32 -31 -26 -4 -47 -14
-54 -26 -11 -16 -8 -22 19 -45 17 -14 44 -29 60 -32 16 -3 32 -12 35 -19 8
-21 18 -17 31 11 19 41 14 85 -13 121 -14 18 -25 37 -25 43 0 14 -17 14 -26 0z"/>
<path d="M1013 2856 c-13 -12 -23 -29 -23 -38 0 -9 -7 -18 -15 -22 -8 -3 -15
-13 -15 -23 1 -23 26 -57 34 -45 3 5 25 15 48 21 57 15 105 57 91 80 -6 9 -27
19 -48 22 -20 3 -40 11 -44 16 -3 6 -15 1 -28 -11z"/>
<path d="M1556 2871 c-4 -5 -1 -11 6 -13 6 -2 8 -10 4 -16 -4 -7 -16 -10 -25
-7 -10 3 -24 -1 -31 -10 -17 -21 -1 -38 50 -55 45 -15 50 -25 18 -34 -22 -6
-22 -7 15 -41 21 -19 42 -35 48 -35 13 0 29 44 23 67 -4 13 3 21 25 30 17 6
31 16 31 21 0 11 -60 42 -82 42 -18 1 -43 21 -51 43 -7 18 -22 23 -31 8z"/>
<path d="M435 2840 c-14 -16 -16 -29 -11 -72 10 -73 54 -124 70 -82 11 28 7
52 -15 90 -11 21 -18 46 -16 56 7 26 -8 31 -28 8z"/>
<path d="M1284 2796 c3 -14 1 -28 -5 -31 -12 -8 17 -45 36 -45 21 0 62 40 47
47 -7 3 -26 16 -41 29 -36 30 -45 30 -37 0z"/>
<path d="M523 2776 c-25 -12 -29 -21 -13 -31 6 -3 10 -1 10 5 0 6 8 10 17 8
10 -2 19 4 21 15 4 19 -3 20 -35 3z"/>
<path d="M1600 2600 c0 -5 5 -10 10 -10 6 0 10 5 10 10 0 6 -4 10 -10 10 -5 0
-10 -4 -10 -10z"/>
<path d="M1554 2557 c4 -19 1 -29 -11 -36 -10 -6 -13 -10 -8 -11 31 0 53 59
26 68 -10 3 -12 -2 -7 -21z"/>
<path d="M3669 2300 c0 -3 -2 -13 -4 -22 -2 -10 3 -18 11 -18 8 0 14 3 14 8 0
9 -19 39 -21 32z"/>
<path d="M3330 1830 c0 -5 5 -10 10 -10 6 0 10 5 10 10 0 6 -4 10 -10 10 -5 0
-10 -4 -10 -10z"/>
<path d="M1445 1800 c-3 -5 -1 -10 4 -10 6 0 11 5 11 10 0 6 -2 10 -4 10 -3 0
-8 -4 -11 -10z"/>
<path d="M3315 1800 c-3 -5 1 -10 10 -10 9 0 13 5 10 10 -3 6 -8 10 -10 10 -2
0 -7 -4 -10 -10z"/>
<path d="M3170 1620 c0 -5 5 -10 10 -10 6 0 10 5 10 10 0 6 -4 10 -10 10 -5 0
-10 -4 -10 -10z"/>
<path d="M1211 1586 c-14 -34 -17 -88 -7 -104 4 -8 2 -10 -7 -6 -20 7 -41 -83
-34 -139 4 -29 1 -47 -9 -58 -20 -22 -37 -129 -23 -145 7 -8 6 -13 -2 -16 -7
-2 -12 -30 -14 -68 -2 -43 0 -58 7 -47 11 21 42 22 63 1 8 -9 22 -14 30 -11 9
4 15 -2 17 -16 2 -12 9 -22 16 -22 19 0 32 -27 26 -52 -3 -12 -1 -30 6 -40 10
-15 10 -13 6 14 -3 18 -1 35 4 38 6 3 10 0 10 -7 0 -7 9 5 21 26 l20 38 -22
24 c-13 14 -36 31 -52 39 -27 13 -29 13 -34 -5 -6 -21 -33 -28 -33 -9 0 6 -6
9 -12 6 -9 -3 -13 5 -13 24 0 19 4 28 12 25 6 -3 13 -1 15 4 2 5 17 12 33 16
28 5 32 2 45 -30 7 -20 20 -36 28 -36 7 0 20 -6 28 -14 11 -11 19 -12 39 -3
27 13 31 22 15 32 -20 12 -10 27 16 22 l25 -4 -25 26 c-29 31 -37 91 -11 91 9
0 12 -6 9 -15 -4 -8 -2 -15 3 -15 10 0 43 53 43 69 0 15 -30 14 -64 -4 -24
-13 -27 -13 -23 -1 3 8 1 17 -6 20 -7 2 -1 4 13 3 19 -2 26 3 28 22 2 14 -3
30 -10 35 -8 6 -18 24 -22 40 -5 21 -11 27 -26 23 -15 -4 -19 0 -18 16 1 12
-9 45 -22 72 -13 28 -26 61 -30 75 -4 14 -12 24 -18 23 -6 -2 -9 4 -6 12 4 8
1 15 -4 15 -6 0 -12 10 -15 23 -3 21 -4 20 -16 -7z m-39 -348 c-9 -9 -12 -7
-12 12 0 19 3 21 12 12 9 -9 9 -15 0 -24z m22 -98 c9 -17 14 -35 11 -41 -9
-13 -55 40 -55 63 0 25 23 13 44 -22z"/>
<path d="M3336 1361 c-10 -15 28 -47 51 -43 12 2 31 -2 42 -8 26 -13 28 1 4
22 -19 15 -68 38 -83 38 -5 0 -11 -4 -14 -9z"/>
<path d="M3440 1358 c0 -4 7 -8 15 -8 8 0 15 4 15 8 0 5 -7 9 -15 9 -8 0 -15
-4 -15 -9z"/>
<path d="M840 1300 c0 -6 -4 -8 -10 -5 -17 10 -11 -17 16 -82 28 -66 44 -80
44 -38 0 14 -4 25 -8 25 -4 0 -8 8 -9 18 -4 40 -16 83 -24 88 -5 3 -9 0 -9 -6z"/>
<path d="M3476 1273 c5 -27 2 -33 -13 -33 -17 -1 -17 -1 -1 -11 10 -5 15 -16
12 -24 -4 -8 -2 -15 4 -15 17 0 19 33 6 75 -11 34 -12 35 -8 8z"/>
<path d="M3194 1262 c-6 -4 -13 -15 -17 -24 -5 -15 -1 -16 26 -11 39 7 41 8
34 28 -7 16 -25 19 -43 7z"/>
<path d="M3007 1233 c-8 -16 -1 -56 10 -60 14 -5 26 28 17 51 -6 17 -20 21
-27 9z"/>
<path d="M2930 1215 c0 -19 24 -29 47 -21 14 6 12 9 -11 21 -35 18 -36 18 -36
0z"/>
<path d="M3052 1198 c-7 -7 -12 -19 -12 -28 0 -19 -35 -20 -67 -2 -23 13 -29
7 -15 -14 9 -14 62 -24 62 -12 0 5 9 4 20 -2 14 -8 20 -8 20 0 0 6 5 8 11 4 8
-5 9 -2 2 11 -6 10 -8 26 -6 36 6 22 2 24 -15 7z"/>
<path d="M3551 1181 c-12 -21 -5 -32 15 -24 16 6 19 43 4 43 -5 0 -14 -8 -19
-19z"/>
<path d="M1476 1164 c-3 -9 -6 -26 -6 -39 0 -13 -4 -27 -10 -30 -16 -10 -12
-38 4 -32 11 5 15 -3 14 -34 0 -30 -4 -39 -14 -35 -10 4 -14 -3 -14 -20 0 -14
-4 -23 -9 -20 -4 3 -6 -7 -4 -22 3 -19 2 -23 -5 -13 -7 9 -12 10 -16 2 -4 -6
-4 -11 1 -12 4 0 25 -2 45 -4 36 -4 58 7 39 19 -5 4 -12 2 -16 -4 -4 -6 -11
-8 -16 -5 -15 10 -10 33 12 54 18 17 20 25 13 63 -5 24 -7 67 -6 96 3 53 -1
65 -12 36z"/>
<path d="M3168 1173 c6 -2 18 -2 25 0 6 3 1 5 -13 5 -14 0 -19 -2 -12 -5z"/>
<path d="M3258 1152 c-7 -25 3 -35 26 -26 20 8 21 24 2 24 -8 0 -16 6 -18 12
-3 7 -7 2 -10 -10z"/>
<path d="M710 1155 c0 -6 -20 -19 -45 -29 -26 -11 -45 -26 -46 -35 0 -10 -3
-8 -9 7 -5 12 -7 29 -4 37 5 11 -1 15 -19 15 -24 0 -25 -2 -20 -37 9 -61 22
-86 38 -79 11 4 15 -2 15 -22 0 -15 4 -43 10 -62 7 -25 7 -36 -3 -42 -7 -4 3
-6 22 -4 18 2 37 9 41 16 4 7 13 10 19 6 10 -7 10 0 -5 42 -9 22 -4 106 5 112
14 9 20 55 11 70 -5 8 -10 10 -10 5z"/>
<path d="M2728 1153 c7 -3 16 -2 19 1 4 3 -2 6 -13 5 -11 0 -14 -3 -6 -6z"/>
<path d="M3091 1138 c1 -19 2 -19 6 -5 3 11 11 16 19 13 9 -3 12 -1 9 4 -12
19 -35 10 -34 -12z"/>
<path d="M3487 1153 c-10 -2 -16 -12 -15 -21 2 -9 -7 -18 -22 -23 -25 -7 -25
-7 -2 -8 13 -1 22 -6 20 -12 -2 -6 -8 -10 -13 -10 -14 0 -38 -73 -26 -77 5 -2
7 -11 4 -20 -5 -13 -3 -14 7 -5 7 6 14 28 16 49 2 21 7 40 12 43 5 3 13 21 17
38 3 18 14 37 23 43 18 10 10 11 -21 3z"/>
<path d="M945 1110 c3 -5 8 -10 11 -10 2 0 4 5 4 10 0 6 -5 10 -11 10 -5 0 -7
-4 -4 -10z"/>
<path d="M3226 1104 c-4 -9 -4 -19 -1 -22 2 -3 7 3 11 12 4 9 4 19 1 22 -2 3
-7 -3 -11 -12z"/>
<path d="M3520 1106 c0 -9 5 -16 10 -16 6 0 10 4 10 9 0 6 -4 13 -10 16 -5 3
-10 -1 -10 -9z"/>
<path d="M1070 1103 c-52 -15 -55 -21 -54 -96 1 -88 10 -118 30 -110 8 3 12 8
10 11 -3 3 -1 11 4 17 6 7 13 44 17 81 3 38 10 74 15 81 11 13 -1 22 -22 16z"/>
<path d="M3005 1100 c-3 -6 1 -7 9 -4 18 7 21 14 7 14 -6 0 -13 -4 -16 -10z"/>
<path d="M3590 1100 c0 -5 5 -10 11 -10 5 0 7 5 4 10 -3 6 -8 10 -11 10 -2 0
-4 -4 -4 -10z"/>
<path d="M3368 1093 c6 -2 18 -2 25 0 6 3 1 5 -13 5 -14 0 -19 -2 -12 -5z"/>
<path d="M1662 1074 c-9 -10 -8 -14 6 -17 15 -4 15 -5 0 -6 -9 0 -22 -14 -30
-31 -9 -21 -20 -30 -35 -30 -29 0 -29 -14 -2 -41 15 -15 18 -24 10 -33 -12
-15 -5 -26 17 -26 11 0 13 9 8 40 -4 25 -2 40 4 40 6 0 10 6 9 13 -1 6 1 20 6
30 6 14 10 15 22 6 23 -20 32 3 14 37 -13 24 -19 28 -29 18z"/>
<path d="M2642 1070 c-22 -21 -30 -70 -12 -70 6 0 -3 -13 -19 -30 -17 -16 -27
-32 -22 -35 6 -3 12 -1 16 5 8 13 45 13 45 1 0 -25 -13 -41 -25 -31 -9 8 -14
5 -18 -11 -3 -11 -3 -27 0 -35 7 -19 48 -18 64 3 9 11 10 14 2 9 -9 -5 -12 0
-11 18 2 25 3 25 21 6 10 -11 24 -20 32 -20 9 0 12 -6 8 -17 -6 -16 -4 -16 15
1 28 24 28 36 0 36 -27 1 -90 60 -70 67 6 3 12 10 12 16 0 6 10 21 22 34 l21
23 -23 25 c-28 30 -30 30 -58 5z m28 -34 c0 -2 -7 -9 -15 -16 -12 -10 -15 -10
-15 4 0 9 7 16 15 16 8 0 15 -2 15 -4z"/>
<path d="M2720 1077 c0 -8 12 -24 26 -38 l27 -24 -6 26 c-6 23 -4 26 16 24 12
-1 14 0 5 2 -10 2 -18 9 -18 14 0 5 -11 9 -25 9 -14 0 -25 -6 -25 -13z"/>
<path d="M3517 1074 c-4 -4 -7 -17 -7 -29 0 -11 -4 -25 -8 -30 -12 -14 -34
-96 -28 -103 3 -3 2 -10 -3 -16 -9 -11 -14 -45 -12 -80 1 -19 1 -19 22 0 15
13 19 26 15 46 -4 20 -2 26 8 22 7 -3 18 7 24 21 14 30 47 35 37 5 -9 -27 19
-63 50 -65 26 -1 33 9 15 20 -5 3 -10 15 -10 26 0 10 5 19 10 19 6 0 10 7 10
15 0 8 -7 15 -15 15 -8 0 -15 -7 -15 -15 0 -12 -4 -11 -20 5 -11 11 -20 27
-20 35 0 8 -8 15 -17 15 -11 0 -14 3 -8 8 13 9 11 52 -2 61 -6 3 -12 12 -14
19 -3 7 -8 10 -12 6z m0 -136 c-3 -8 -6 -5 -6 6 -1 11 2 17 5 13 3 -3 4 -12 1
-19z"/>
<path d="M979 1058 c-1 -2 -2 -18 -4 -35 -2 -23 2 -33 11 -33 9 0 14 12 14 35
0 19 -4 35 -10 35 -5 0 -10 -1 -11 -2z"/>
<path d="M3000 1034 c-11 -12 -10 -18 3 -31 13 -13 19 -14 31 -3 17 14 22 35
6 25 -5 -3 -15 -3 -21 1 -8 4 -7 9 2 15 8 5 9 9 3 9 -6 0 -17 -7 -24 -16z"/>
<path d="M2520 1029 c0 -5 5 -7 10 -4 6 3 10 8 10 11 0 2 -4 4 -10 4 -5 0 -10
-5 -10 -11z"/>
<path d="M2873 1020 c-4 -15 -11 -19 -26 -14 -16 5 -19 3 -14 -10 4 -10 1 -16
-8 -16 -8 0 -15 -5 -15 -11 0 -5 -4 -7 -10 -4 -5 3 -10 -3 -10 -14 0 -12 -4
-21 -10 -21 -5 0 -10 -4 -10 -10 0 -5 6 -10 14 -10 8 0 16 -6 19 -12 3 -9 15
-3 37 17 l32 30 -7 -49 c-6 -41 -4 -48 9 -43 9 4 16 -1 19 -11 3 -9 2 17 0 58
-3 41 -5 90 -6 108 0 36 -6 42 -14 12z m-38 -69 c-3 -6 -11 -11 -17 -11 -6 0
-6 6 2 15 14 17 26 13 15 -4z"/>
<path d="M2932 945 c2 -52 6 -95 9 -95 23 0 32 108 11 132 -11 13 -12 21 -3
31 6 8 8 17 4 20 -19 20 -24 -2 -21 -88z"/>
<path d="M1853 1004 c-48 -28 -50 -32 -28 -48 14 -10 13 -18 -9 -68 -24 -54
-24 -58 -8 -74 16 -16 15 -17 -8 -11 -29 7 -56 -6 -46 -22 9 -14 43 -14 51 -1
9 14 45 12 49 -2 12 -37 14 -78 6 -78 -6 0 -10 11 -10 24 0 37 -13 38 -37 3
-15 -23 -20 -41 -16 -65 5 -29 8 -33 29 -28 23 6 32 -3 17 -18 -8 -8 -16 -56
-9 -56 18 0 57 26 61 42 4 10 12 18 19 18 17 0 41 28 32 37 -3 4 -22 1 -42 -6
-20 -7 -37 -11 -39 -9 -9 9 66 78 83 78 23 0 37 29 22 44 -7 7 -10 5 -10 -4 0
-14 -42 -40 -62 -40 -22 0 -2 36 52 89 61 61 72 81 45 81 -8 0 -15 5 -15 11 0
5 5 7 10 4 17 -11 11 5 -22 53 -37 54 -53 72 -65 72 -4 0 -27 -12 -50 -26z"/>
<path d="M2330 1016 c0 -8 -13 -28 -30 -44 -16 -17 -30 -35 -30 -42 0 -6 -7
-22 -17 -36 l-16 -25 36 21 c21 12 37 27 37 33 0 8 3 8 8 -1 9 -13 42 -6 42 9
0 5 -3 8 -7 7 -5 -2 -9 0 -10 5 -2 4 0 6 5 5 38 -8 42 -11 36 -31 -6 -19 -5
-19 24 4 34 27 40 39 17 39 -8 0 -15 6 -16 13 0 6 -4 3 -9 -8 -7 -16 -9 -17
-9 -3 -1 9 4 20 9 23 6 3 10 11 10 16 0 13 -42 1 -53 -15 -5 -6 -6 1 -3 17 5
20 3 27 -9 27 -8 0 -15 -6 -15 -14z"/>
<path d="M3080 1011 c0 -6 9 -9 20 -8 11 1 20 5 20 9 0 4 -9 8 -20 8 -11 0
-20 -4 -20 -9z"/>
<path d="M3247 1013 c-4 -3 -7 -11 -7 -17 0 -6 5 -5 12 2 6 6 9 14 7 17 -3 3
-9 2 -12 -2z"/>
<path d="M3330 995 c0 -8 5 -15 10 -15 6 0 10 7 10 15 0 8 -4 15 -10 15 -5 0
-10 -7 -10 -15z"/>
<path d="M2569 984 c-12 -14 -11 -16 5 -13 11 2 21 10 24 17 5 17 -13 15 -29
-4z"/>
<path d="M2720 974 c-15 -38 -12 -51 6 -26 8 12 12 27 9 32 -4 7 2 9 18 5 14
-4 28 -2 31 4 5 7 -4 11 -24 11 -24 0 -33 -6 -40 -26z"/>
<path d="M3083 973 c9 -9 19 -14 23 -11 10 10 -6 28 -24 28 -15 0 -15 -1 1
-17z"/>
<path d="M1172 920 c-11 -44 -7 -57 24 -64 14 -4 22 -11 19 -16 -4 -6 -14 -6
-27 1 -29 16 -48 -11 -48 -68 0 -37 3 -43 21 -43 16 0 19 -4 13 -22 -3 -13
-13 -30 -20 -39 -13 -14 -13 -18 0 -28 11 -9 15 -9 19 1 4 8 6 7 6 -4 2 -31
20 -20 41 24 13 27 17 45 11 51 -7 7 -7 17 0 28 8 15 4 19 -26 25 -41 7 -48
34 -9 34 14 0 23 -4 19 -10 -3 -5 1 -10 11 -10 12 0 14 3 6 13 -6 7 -9 33 -6
59 4 38 1 50 -20 74 l-24 29 -10 -35z"/>
<path d="M3427 943 c-5 -7 -6 -17 -3 -22 4 -5 1 -11 -6 -13 -7 -3 -9 -12 -4
-23 11 -29 28 -3 24 36 -2 22 -6 30 -11 22z"/>
<path d="M3270 931 c0 -5 5 -13 10 -16 6 -3 10 -2 10 4 0 5 -4 13 -10 16 -5 3
-10 2 -10 -4z"/>
<path d="M2436 914 c-17 -12 -17 -14 -4 -14 9 0 20 5 23 11 11 17 2 18 -19 3z"/>
<path d="M734 912 c-6 -4 -14 -16 -17 -27 -7 -20 -7 -20 8 -1 8 11 21 23 27
28 7 4 9 8 3 8 -5 0 -15 -4 -21 -8z"/>
<path d="M1387 913 c-4 -3 -7 -11 -7 -17 0 -6 5 -5 12 2 6 6 9 14 7 17 -3 3
-9 2 -12 -2z"/>
<path d="M2508 888 c-30 -29 -31 -33 -13 -36 10 -3 21 0 23 6 1 5 11 8 21 5
15 -4 17 1 13 26 -2 17 -6 31 -8 31 -2 0 -18 -15 -36 -32z"/>
<path d="M3040 911 c0 -5 -11 -12 -24 -15 -20 -5 -42 -43 -31 -54 8 -9 65 43
65 60 0 10 -2 18 -5 18 -3 0 -5 -4 -5 -9z"/>
<path d="M3112 881 c-14 -47 -15 -62 -1 -39 15 27 39 10 39 -28 0 -19 5 -34
11 -34 16 0 4 101 -13 112 -10 6 -10 10 2 18 12 8 11 10 -6 10 -16 0 -24 -10
-32 -39z"/>
<path d="M2340 900 c0 -5 5 -10 10 -10 6 0 10 5 10 10 0 6 -4 10 -10 10 -5 0
-10 -4 -10 -10z"/>
<path d="M1337 886 c-10 -25 -9 -26 9 -19 14 5 16 0 12 -30 -2 -21 0 -37 4
-37 13 0 9 65 -5 84 -13 18 -14 18 -20 2z"/>
<path d="M3222 853 c2 -50 28 -62 28 -13 0 17 5 30 10 30 6 0 10 6 10 13 0 6
-11 12 -25 12 -23 0 -25 -3 -23 -42z"/>
<path d="M3640 886 c0 -8 7 -19 17 -24 11 -6 14 -16 9 -28 -5 -15 -4 -16 5 -7
8 8 8 20 2 39 -10 31 -33 45 -33 20z"/>
<path d="M3356 868 c7 -22 7 -30 2 -72 -2 -10 3 -21 10 -23 6 -3 12 3 12 12 0
11 5 15 14 12 30 -12 27 56 -3 80 -27 21 -43 16 -35 -9z"/>
<path d="M627 863 c-4 -3 -7 -11 -7 -17 0 -6 5 -5 12 2 6 6 9 14 7 17 -3 3 -9
2 -12 -2z"/>
<path d="M2037 863 c-4 -3 -7 -11 -7 -17 0 -6 5 -5 12 2 6 6 9 14 7 17 -3 3
-9 2 -12 -2z"/>
<path d="M2385 856 c-11 -8 -14 -15 -8 -19 6 -4 16 0 23 8 17 21 8 28 -15 11z"/>
<path d="M3 815 c0 -22 2 -30 4 -17 2 12 2 30 0 40 -3 9 -5 -1 -4 -23z"/>
<path d="M2180 829 c0 -11 5 -17 10 -14 6 3 10 13 10 21 0 8 -4 14 -10 14 -5
0 -10 -9 -10 -21z"/>
<path d="M2738 837 c-10 -8 -13 -18 -9 -26 7 -10 12 -10 30 1 21 13 24 29 5
35 -5 1 -17 -3 -26 -10z"/>
<path d="M688 833 c6 -2 18 -2 25 0 6 3 1 5 -13 5 -14 0 -19 -2 -12 -5z"/>
<path d="M1395 824 c-9 -10 -14 -26 -11 -36 6 -26 -3 -48 -20 -48 -12 0 -12
-4 -2 -20 9 -14 10 -25 2 -37 -15 -27 -6 -55 16 -48 13 4 19 -2 24 -26 3 -17
6 -43 6 -56 0 -13 7 -31 16 -40 8 -9 13 -22 10 -30 -4 -8 -1 -11 5 -7 7 4 9 0
5 -14 -4 -11 -2 -23 4 -27 6 -4 10 4 10 19 0 16 6 26 15 26 8 0 15 -5 15 -11
0 -15 28 8 42 35 10 18 9 19 -4 9 -11 -10 -17 -10 -26 -1 -10 10 -17 10 -32 0
-18 -11 -22 -10 -29 10 -6 16 -5 26 3 33 9 7 11 42 9 115 -5 169 -15 196 -58
154z"/>
<path d="M2414 825 c-19 -15 -19 -15 0 -30 29 -22 36 -19 36 15 0 34 -7 37
-36 15z"/>
<path d="M723 804 c-14 -31 8 -33 37 -4 25 25 25 28 -3 28 -14 0 -27 -9 -34
-24z"/>
<path d="M2045 800 c-4 -16 -11 -32 -16 -35 -5 -4 -14 -16 -20 -27 l-11 -21
28 20 29 21 -3 -43 c-4 -41 -3 -43 20 -39 12 2 17 2 11 -2 -20 -9 -15 -31 10
-56 31 -31 54 -25 59 17 2 18 0 31 -4 29 -4 -3 -8 0 -8 5 0 6 4 11 8 11 5 0
14 11 20 24 9 20 8 25 -4 30 -21 8 -37 -3 -30 -20 3 -8 -3 -23 -14 -34 -20
-20 -20 -20 -14 37 4 32 11 67 17 77 8 16 7 18 -9 11 -33 -13 -49 -11 -48 8 3
29 -14 19 -21 -13z"/>
<path d="M2349 818 c-1 -7 -1 -16 0 -20 0 -5 -6 -8 -14 -8 -8 0 -15 -5 -15
-11 0 -6 10 -9 23 -7 16 2 23 11 25 31 2 15 -1 27 -7 27 -6 0 -12 -6 -12 -12z"/>
<path d="M1090 794 c0 -8 5 -12 10 -9 6 4 8 11 5 16 -9 14 -15 11 -15 -7z"/>
<path d="M1525 789 c-4 -11 -4 -23 -2 -26 9 -8 27 7 27 22 0 23 -18 27 -25 4z"/>
<path d="M555 787 c-60 -36 -60 -36 -41 -43 11 -4 25 3 41 20 34 37 34 43 0
23z"/>
<path d="M2483 786 c4 -10 7 -20 7 -22 0 -11 39 -2 50 11 10 12 10 15 -1 15
-8 0 -25 3 -38 7 -20 5 -23 3 -18 -11z"/>
<path d="M2692 791 c2 -7 7 -12 11 -12 12 1 9 15 -3 20 -7 2 -11 -2 -8 -8z"/>
<path d="M782 778 c-7 -7 -12 -16 -12 -20 0 -12 28 -10 36 3 10 17 -10 31 -24
17z"/>
<path d="M2586 782 c-4 -7 -11 -10 -16 -7 -5 3 -8 -3 -7 -14 1 -11 6 -17 14
-14 9 4 11 0 7 -11 -4 -9 -9 -14 -12 -12 -8 9 -32 -15 -32 -32 0 -12 5 -11 20
6 12 12 25 22 30 22 6 0 10 7 10 16 0 9 5 12 13 8 9 -6 9 -4 1 7 -6 8 -13 21
-16 29 -3 10 -6 11 -12 2z"/>
<path d="M3616 781 c-3 -4 1 -17 9 -27 8 -10 15 -14 15 -7 0 6 3 18 6 27 6 17
-20 23 -30 7z"/>
<path d="M2757 764 c5 -13 2 -15 -15 -9 -16 5 -22 2 -22 -9 0 -18 25 -22 35
-6 11 19 31 10 33 -14 1 -16 -4 -26 -16 -29 -13 -3 -11 -6 10 -15 34 -14 57
-6 68 24 5 12 18 24 30 26 l21 3 -21 23 c-28 30 -44 28 -36 -3 4 -15 2 -25 -4
-25 -18 0 -60 32 -54 41 3 5 -4 9 -15 9 -15 0 -19 -5 -14 -16z"/>
<path d="M115 760 c-11 -17 5 -32 21 -19 7 6 11 15 8 20 -7 12 -21 11 -29 -1z"/>
<path d="M2260 760 c0 -5 4 -10 9 -10 6 0 13 5 16 10 3 6 -1 10 -9 10 -9 0
-16 -4 -16 -10z"/>
<path d="M1740 739 c0 -11 4 -18 10 -14 5 3 7 12 3 20 -7 21 -13 19 -13 -6z"/>
<path d="M50 740 c0 -5 4 -10 9 -10 6 0 13 5 16 10 3 6 -1 10 -9 10 -9 0 -16
-4 -16 -10z"/>
<path d="M2414 712 c-8 -52 -8 -56 4 -60 6 -2 9 5 8 15 -2 10 2 28 7 41 7 16
7 26 -1 34 -8 8 -13 1 -18 -30z"/>
<path d="M2480 740 c0 -5 7 -7 15 -4 8 4 15 8 15 10 0 2 -7 4 -15 4 -8 0 -15
-4 -15 -10z"/>
<path d="M3158 743 c7 -3 16 -2 19 1 4 3 -2 6 -13 5 -11 0 -14 -3 -6 -6z"/>
<path d="M1023 703 c1 -19 7 -33 15 -33 16 0 15 22 -3 46 -13 18 -14 17 -12
-13z"/>
<path d="M2450 710 c0 -5 5 -10 10 -10 6 0 10 5 10 10 0 6 -4 10 -10 10 -5 0
-10 -4 -10 -10z"/>
<path d="M2691 703 c-17 -19 -10 -47 14 -51 20 -3 20 -3 1 13 -11 8 -15 15 -8
15 6 0 16 8 21 18 12 23 -8 26 -28 5z"/>
<path d="M96 702 c-3 -3 -6 -14 -6 -24 0 -10 -7 -18 -15 -18 -11 0 -8 -8 12
-30 35 -40 53 -39 53 4 0 39 14 55 25 28 6 -16 7 -16 17 1 7 13 7 22 0 29 -12
12 -77 20 -86 10z"/>
<path d="M270 703 c-8 -4 -28 -19 -44 -34 l-29 -27 31 -32 c36 -36 39 -45 16
-54 -24 -9 -10 -19 15 -11 12 3 21 13 21 21 0 8 8 26 17 40 13 21 14 27 4 34
-10 6 -10 10 4 17 15 9 15 13 4 31 -15 23 -16 24 -39 15z"/>
<path d="M460 699 c0 -5 5 -7 10 -4 6 3 10 8 10 11 0 2 -4 4 -10 4 -5 0 -10
-5 -10 -11z"/>
<path d="M3660 699 c0 -5 5 -7 10 -4 6 3 10 8 10 11 0 2 -4 4 -10 4 -5 0 -10
-5 -10 -11z"/>
<path d="M700 690 c0 -5 -15 -10 -34 -10 -19 0 -38 -4 -41 -10 -3 -5 -15 -10
-26 -10 -11 0 -17 -5 -14 -10 3 -6 17 -7 31 -4 14 4 24 2 24 -4 0 -15 -22 -27
-41 -24 -11 2 -15 -5 -15 -20 1 -12 -5 -23 -11 -24 -27 -3 -27 -6 2 -15 17 -5
31 -5 33 -1 1 4 7 14 13 22 8 11 12 12 16 3 2 -7 11 -13 20 -13 8 0 29 -12 48
-26 l33 -25 26 38 c28 41 34 62 12 44 -11 -9 -15 -7 -19 9 -6 23 -37 27 -37 5
0 -18 -1 -18 -35 -5 -42 16 -25 35 31 35 27 0 50 4 52 8 5 16 1 28 -8 22 -5
-3 -10 -1 -10 5 0 6 -4 9 -9 5 -5 -3 -12 -1 -16 5 -8 13 -25 13 -25 0z"/>
<path d="M1242 666 c-12 -21 -22 -39 -22 -41 0 -1 14 -8 30 -14 19 -6 30 -6
30 0 0 6 7 6 19 -1 18 -9 20 -7 19 20 -1 22 -6 30 -20 30 -10 0 -22 10 -27 21
-7 20 -9 19 -29 -15z"/>
<path d="M1727 693 c-10 -9 -9 -43 1 -43 4 0 9 11 10 25 2 26 0 29 -11 18z"/>
<path d="M1926 684 c-4 -10 -1 -14 6 -12 15 5 23 28 10 28 -5 0 -13 -7 -16
-16z"/>
<path d="M2000 689 c0 -5 5 -7 10 -4 6 3 10 8 10 11 0 2 -4 4 -10 4 -5 0 -10
-5 -10 -11z"/>
<path d="M2341 684 c0 -11 3 -14 6 -6 3 7 2 16 -1 19 -3 4 -6 -2 -5 -13z"/>
<path d="M3480 685 c-10 -12 -10 -15 4 -15 9 0 16 7 16 15 0 8 -2 15 -4 15 -2
0 -9 -7 -16 -15z"/>
<path d="M495 680 c3 -5 10 -10 16 -10 5 0 9 5 9 10 0 6 -7 10 -16 10 -8 0
-12 -4 -9 -10z"/>
<path d="M2293 667 c0 -15 1 -27 2 -27 13 0 35 14 35 23 0 6 -3 7 -7 4 -3 -4
-12 1 -18 10 -11 15 -12 14 -12 -10z"/>
<path d="M2565 679 c-11 -5 -28 -24 -38 -40 -19 -35 -43 -34 -39 2 3 23 2 23
-12 4 -9 -11 -16 -15 -16 -10 -1 26 -20 -24 -20 -54 0 -33 0 -34 20 -16 11 10
18 21 15 25 -2 4 2 7 10 7 18 0 20 -39 5 -68 -6 -11 -7 -19 -1 -19 5 0 11 7
15 15 3 8 12 15 21 15 20 0 19 30 -2 47 -16 13 -16 13 7 8 16 -4 20 -3 12 3
-10 7 -10 11 3 22 12 10 15 10 15 -4 0 -19 16 -21 27 -3 9 14 12 77 4 76 -3 0
-15 -5 -26 -10z"/>
<path d="M931 666 c-8 -10 -8 -16 1 -23 25 -19 48 -23 48 -8 0 7 -10 17 -22
21 -22 7 -22 7 -3 15 15 6 16 8 4 8 -9 1 -22 -5 -28 -13z"/>
<path d="M1500 666 c0 -9 5 -16 10 -16 6 0 10 4 10 9 0 6 -4 13 -10 16 -5 3
-10 -1 -10 -9z"/>
<path d="M1637 665 c-3 -7 2 -24 13 -37 l19 -23 9 25 c7 19 5 28 -7 37 -21 16
-28 16 -34 -2z"/>
<path d="M2863 654 c-6 -13 -8 -24 -4 -24 10 0 31 39 23 44 -4 2 -12 -7 -19
-20z"/>
<path d="M860 666 c0 -2 7 -9 15 -16 12 -10 15 -10 15 4 0 9 -7 16 -15 16 -8
0 -15 -2 -15 -4z"/>
<path d="M3592 654 c-10 -11 -11 -18 -2 -29 7 -9 8 -15 0 -20 -14 -9 -13 -38
2 -33 14 5 30 79 20 90 -4 3 -13 0 -20 -8z"/>
<path d="M460 644 c-14 -7 -19 -14 -12 -14 6 0 12 -7 12 -15 0 -13 4 -14 20
-5 11 6 20 20 20 30 0 23 -5 23 -40 4z"/>
<path d="M1550 651 c0 -6 5 -13 10 -16 6 -3 10 1 10 9 0 9 -4 16 -10 16 -5 0
-10 -4 -10 -9z"/>
<path d="M3175 650 c-3 -5 -1 -10 4 -10 6 0 11 5 11 10 0 6 -2 10 -4 10 -3 0
-8 -4 -11 -10z"/>
<path d="M0 605 c0 -25 2 -45 5 -45 9 0 35 72 29 81 -3 5 -12 9 -20 9 -10 0
-14 -12 -14 -45z"/>
<path d="M546 634 c-8 -21 -4 -25 14 -14 11 7 12 12 4 20 -8 8 -13 7 -18 -6z"/>
<path d="M806 641 c-4 -7 -5 -15 -2 -18 9 -9 19 4 14 18 -4 11 -6 11 -12 0z"/>
<path d="M1754 638 c-4 -6 -2 -14 4 -16 7 -2 12 -8 12 -13 0 -4 -7 -6 -15 -3
-8 4 -15 2 -15 -4 0 -6 -3 -18 -7 -28 -5 -13 3 -10 29 11 31 24 34 31 25 47
-14 21 -23 23 -33 6z"/>
<path d="M2272 614 c-2 -44 20 -66 42 -44 8 8 4 12 -11 16 -15 4 -23 15 -26
38 -3 26 -4 25 -5 -10z"/>
<path d="M2752 639 c2 -6 8 -10 13 -10 5 0 11 4 13 10 2 6 -4 11 -13 11 -9 0
-15 -5 -13 -11z"/>
<path d="M3532 635 l-23 -12 23 -6 c20 -6 37 6 38 26 0 10 -10 8 -38 -8z"/>
<path d="M1586 632 c-4 -7 0 -19 8 -28 17 -17 19 -11 7 20 -5 14 -10 16 -15 8z"/>
<path d="M990 619 c0 -5 5 -7 10 -4 6 3 10 8 10 11 0 2 -4 4 -10 4 -5 0 -10
-5 -10 -11z"/>
<path d="M2652 605 c-23 -26 -29 -55 -12 -55 6 0 10 7 10 16 0 8 4 12 10 9 5
-3 20 3 32 15 19 18 20 22 8 30 -21 14 -24 13 -48 -15z"/>
<path d="M920 605 c7 -9 15 -13 17 -11 7 7 -7 26 -19 26 -6 0 -6 -6 2 -15z"/>
<path d="M2010 606 c8 -7 28 -16 43 -20 26 -6 27 -5 17 14 -7 14 -21 20 -42
20 -28 0 -30 -2 -18 -14z"/>
<path d="M3190 605 c0 -8 5 -15 10 -15 6 0 10 7 10 15 0 8 -4 15 -10 15 -5 0
-10 -7 -10 -15z"/>
<path d="M1350 600 c0 -5 5 -10 11 -10 5 0 7 5 4 10 -3 6 -8 10 -11 10 -2 0
-4 -4 -4 -10z"/>
<path d="M2730 601 c0 -5 9 -13 20 -16 11 -3 20 -13 20 -21 0 -8 4 -12 10 -9
13 8 -18 55 -36 55 -8 0 -14 -4 -14 -9z"/>
<path d="M2845 600 c-3 -5 -15 -10 -26 -10 -25 0 -24 -12 2 -28 15 -10 20 -21
16 -38 -3 -16 0 -23 7 -21 13 4 26 96 15 103 -4 2 -10 0 -14 -6z"/>
<path d="M75 591 c-3 -5 -1 -12 5 -16 5 -3 10 1 10 9 0 18 -6 21 -15 7z"/>
<path d="M320 589 c0 -5 5 -7 10 -4 6 3 10 8 10 11 0 2 -4 4 -10 4 -5 0 -10
-5 -10 -11z"/>
<path d="M960 580 c0 -5 7 -10 15 -10 8 0 15 5 15 10 0 6 -7 10 -15 10 -8 0
-15 -4 -15 -10z"/>
<path d="M2334 566 c-4 -16 -2 -32 4 -38 8 -8 13 -3 18 16 4 16 2 32 -4 38 -8
8 -13 3 -18 -16z"/>
<path d="M1346 558 c-18 -25 -21 -58 -6 -58 6 0 10 9 10 21 0 11 5 29 10 40
14 26 5 24 -14 -3z"/>
<path d="M1919 544 c-14 -22 -29 -49 -33 -62 -4 -12 -14 -22 -22 -22 -16 0
-19 36 -4 45 6 3 10 12 10 18 0 8 -3 8 -8 2 -13 -18 -42 -17 -42 2 0 14 -7 11
-32 -14 l-32 -32 25 -20 c14 -12 32 -18 45 -15 19 5 21 2 17 -20 -4 -19 -1
-26 10 -26 8 0 17 13 21 30 4 21 11 30 25 30 14 0 18 5 14 19 -4 17 14 33 41
35 5 1 13 12 17 25 7 18 6 22 -5 18 -9 -4 -16 1 -18 10 -2 12 -11 4 -29 -23z"/>
<path d="M2101 566 c-12 -14 -5 -26 16 -26 15 0 18 26 4 34 -5 3 -14 0 -20 -8z"/>
<path d="M2140 561 c0 -18 23 -35 33 -24 7 6 -15 43 -25 43 -5 0 -8 -9 -8 -19z"/>
<path d="M2390 570 c0 -8 5 -22 10 -30 9 -13 10 -13 10 0 0 8 -5 22 -10 30 -9
13 -10 13 -10 0z"/>
<path d="M339 553 c-13 -16 -12 -17 4 -4 9 7 17 15 17 17 0 8 -8 3 -21 -13z"/>
<path d="M391 549 c-11 -31 3 -49 23 -29 13 13 13 18 1 34 -14 18 -15 18 -24
-5z"/>
<path d="M2950 556 c-6 -9 -10 -21 -8 -28 3 -8 9 -4 17 10 15 28 9 39 -9 18z"/>
<path d="M3550 551 c0 -11 4 -21 9 -21 18 0 21 18 6 30 -13 10 -15 9 -15 -9z"/>
<path d="M1105 539 c-5 -13 -2 -27 8 -36 13 -13 15 -12 19 11 7 34 -17 56 -27
25z"/>
<path d="M1030 535 c8 -10 11 -31 7 -60 -7 -48 -2 -53 27 -32 18 13 18 15 0
42 -11 16 -18 29 -16 30 8 1 -11 35 -20 35 -6 0 -5 -6 2 -15z"/>
<path d="M1270 534 c0 -17 22 -14 28 4 2 7 -3 12 -12 12 -9 0 -16 -7 -16 -16z"/>
<path d="M2585 530 c-15 -17 -16 -20 -3 -20 9 0 19 7 22 16 10 25 1 27 -19 4z"/>
<path d="M2690 530 c-12 -8 -9 -10 13 -10 15 0 27 5 27 10 0 13 -20 13 -40 0z"/>
<path d="M650 499 c0 -18 2 -19 15 -9 15 12 12 30 -6 30 -5 0 -9 -10 -9 -21z"/>
<path d="M925 510 c3 -5 13 -10 21 -10 8 0 12 5 9 10 -3 6 -13 10 -21 10 -8 0
-12 -4 -9 -10z"/>
<path d="M2518 501 c-16 -19 -20 -71 -5 -71 14 0 22 5 23 15 3 26 5 28 18 10
15 -20 10 -56 -10 -68 -10 -6 -9 -13 3 -37 11 -22 18 -28 27 -21 7 6 22 8 34
4 16 -4 22 -1 22 11 0 9 -7 16 -15 16 -22 0 -19 35 7 80 25 43 19 63 -12 35
-19 -18 -20 -17 -20 2 0 11 -8 23 -17 27 -10 3 -23 8 -28 11 -6 3 -18 -3 -27
-14z"/>
<path d="M2645 510 c-3 -5 -2 -10 4 -10 5 0 13 5 16 10 3 6 2 10 -4 10 -5 0
-13 -4 -16 -10z"/>
<path d="M3220 504 c0 -8 5 -12 10 -9 6 3 10 10 10 16 0 5 -4 9 -10 9 -5 0
-10 -7 -10 -16z"/>
<path d="M170 500 c13 -9 7 -14 -12 -11 -5 0 -8 -3 -8 -8 0 -5 -9 -11 -20 -14
-13 -3 -18 -11 -14 -20 5 -13 9 -13 35 0 16 8 38 12 49 8 11 -3 20 -2 20 3 0
11 -43 52 -56 52 -5 0 -2 -5 6 -10z"/>
<path d="M971 496 c-14 -16 -4 -46 14 -46 16 0 23 19 17 43 -5 21 -16 22 -31
3z"/>
<path d="M3040 500 c0 -5 7 -10 15 -10 8 0 15 5 15 10 0 6 -7 10 -15 10 -8 0
-15 -4 -15 -10z"/>
<path d="M3582 498 c-7 -7 -12 -18 -12 -25 0 -7 -7 -13 -15 -13 -8 0 -15 -5
-15 -11 0 -5 5 -7 10 -4 6 3 10 1 10 -5 0 -20 29 16 36 44 7 29 4 32 -14 14z"/>
<path d="M3675 498 c-4 -9 -5 -25 -3 -34 2 -14 5 -15 14 -3 7 8 8 22 4 34 -7
18 -9 18 -15 3z"/>
<path d="M291 481 c-9 -17 -8 -22 10 -32 19 -10 21 -9 16 5 -4 10 -1 16 9 16
20 0 13 24 -9 28 -8 2 -21 -6 -26 -17z"/>
<path d="M691 491 c-8 -5 -11 -16 -6 -30 3 -12 11 -19 16 -15 5 3 7 10 3 15
-3 5 0 16 6 24 14 16 3 20 -19 6z"/>
<path d="M592 478 c-7 -7 -12 -20 -12 -29 0 -9 -11 -24 -25 -33 -28 -18 -33
-36 -10 -36 17 0 22 -65 5 -75 -5 -3 -10 3 -10 13 0 29 -57 48 -81 26 -16 -14
-16 -17 -1 -44 9 -16 20 -26 24 -24 5 3 8 -2 8 -10 0 -25 36 -19 54 9 20 30
30 31 56 5 12 -12 25 -18 30 -15 6 4 10 -6 10 -20 0 -14 7 -39 15 -55 9 -17
16 -33 17 -37 0 -5 9 -7 19 -5 25 4 59 -15 59 -33 0 -8 5 -15 10 -15 6 0 10
-9 10 -20 0 -11 -4 -20 -10 -20 -5 0 -10 -13 -10 -30 0 -20 5 -30 15 -30 8 0
15 5 15 11 0 6 9 9 20 6 14 -3 20 0 20 11 0 8 3 12 7 9 3 -4 12 -2 20 4 8 7
13 8 13 1 0 -5 -7 -12 -15 -16 -8 -3 -15 -10 -15 -16 0 -7 54 -10 167 -8 l167
3 9 42 c4 24 11 43 15 43 21 -1 41 -30 39 -55 -2 -28 -1 -29 51 -30 44 -2 52
0 52 15 0 19 36 34 46 19 3 -5 0 -9 -5 -9 -6 0 -11 -7 -11 -15 0 -8 5 -15 10
-15 6 0 10 4 10 9 0 9 55 41 71 41 5 0 8 -10 6 -23 -2 -17 4 -23 26 -25 21 -3
27 1 27 15 0 11 5 24 12 31 9 9 9 15 0 24 -14 14 -16 58 -3 58 22 0 32 -30 25
-79 l-7 -51 52 0 c28 0 51 2 51 4 0 3 -4 16 -10 31 -8 22 -6 30 15 49 14 13
25 28 25 33 0 13 56 53 73 53 8 0 20 7 27 15 7 8 15 13 19 11 3 -2 15 2 25 9
17 13 17 15 1 31 -13 14 -18 15 -25 4 -4 -7 -15 -10 -23 -7 -11 4 -14 1 -10
-9 7 -20 -45 -19 -69 2 -16 16 -18 16 -24 0 -3 -9 -4 -23 0 -31 3 -9 -4 -21
-19 -31 -24 -16 -41 -48 -37 -71 7 -34 -17 -5 -48 60 -33 69 -34 71 -38 40 -2
-20 -9 -33 -18 -33 -18 0 -18 -1 6 55 15 36 18 51 9 61 -6 8 -9 20 -6 28 4 9
-7 29 -24 47 -16 17 -29 37 -29 45 0 8 -4 14 -9 14 -5 0 -15 2 -23 5 -7 2 -22
-2 -32 -10 -15 -12 -17 -17 -7 -29 7 -8 10 -20 6 -26 -3 -5 -1 -10 4 -10 6 0
11 -6 11 -14 0 -8 12 -16 27 -18 23 -3 27 -8 29 -39 3 -34 0 -37 -35 -49 -27
-9 -44 -9 -57 -2 -16 9 -20 7 -20 -9 0 -10 4 -19 7 -19 17 0 18 -39 3 -71 -23
-47 -53 -70 -76 -58 -12 6 -18 6 -18 -1 0 -5 -4 -10 -10 -10 -18 0 -11 45 10
63 11 9 20 21 20 26 0 21 -20 21 -42 -1 -30 -30 -36 -6 -6 31 13 17 28 30 33
31 14 1 81 64 88 84 4 10 3 15 -3 11 -6 -4 -10 7 -10 26 0 26 -2 29 -14 20
-20 -16 -30 2 -21 37 4 15 10 21 12 15 7 -20 23 -15 23 7 0 12 5 17 14 14 8
-3 17 0 22 7 5 9 2 10 -9 6 -10 -3 -17 -2 -17 3 0 5 -6 7 -14 4 -8 -3 -16 2
-19 13 -3 13 -9 7 -22 -24 -11 -25 -22 -40 -30 -37 -7 3 -16 1 -19 -5 -4 -6
-13 -8 -20 -5 -23 9 -28 -14 -6 -26 13 -7 20 -21 20 -40 0 -37 -15 -46 -33
-19 -19 26 -73 24 -71 -3 2 -18 -19 -20 -43 -5 -13 8 -33 -21 -33 -47 0 -18
25 -22 36 -5 4 8 9 7 15 -2 13 -20 11 -36 -6 -52 -11 -12 -12 -20 -2 -46 10
-27 9 -32 -8 -45 -22 -16 -119 -31 -135 -21 -5 3 -7 18 -4 32 5 18 3 24 -5 19
-6 -4 -11 -14 -11 -22 0 -8 -7 -14 -15 -14 -8 0 -15 5 -15 10 0 6 -11 10 -25
10 -21 0 -30 9 -47 48 -12 26 -22 54 -22 62 -1 8 -7 24 -14 35 -12 19 -13 19
-36 -9 l-24 -28 -9 28 c-7 22 -5 32 9 46 10 10 23 18 28 18 6 0 10 5 10 11 0
6 -9 8 -20 4 -11 -4 -20 -2 -20 4 0 6 -7 11 -15 11 -8 0 -15 -4 -15 -10 0 -5
-4 -10 -9 -10 -6 0 -4 12 4 26 7 15 11 32 8 40 -2 7 0 21 6 31 10 17 10 16 11
-4 0 -34 17 -36 28 -4 8 24 7 31 -5 35 -9 4 -24 -1 -34 -10 -16 -15 -19 -14
-40 5 -12 11 -26 18 -31 15 -14 -9 -9 -44 7 -44 20 0 19 -20 -2 -36 -11 -8
-13 -13 -5 -14 17 0 15 -27 -2 -33 -22 -9 -41 21 -37 61 2 29 0 34 -14 28 -14
-5 -16 -2 -11 20 4 15 14 33 21 41 8 8 15 16 15 19 0 9 -27 3 -38 -8z m738
-178 c0 -17 -19 -11 -30 9 -16 32 -11 42 10 21 11 -11 20 -24 20 -30z m-102
-82 c-2 -13 -11 -22 -23 -23 -11 -2 -29 -6 -40 -10 -16 -6 -14 -1 9 23 35 37
59 42 54 10z m232 -22 c0 -8 3 -23 6 -33 5 -16 5 -17 -6 -1 -6 9 -17 15 -25
12 -9 -4 -15 0 -15 9 0 14 13 24 33 26 4 1 7 -5 7 -13z m-290 -96 c0 -5 -4
-10 -10 -10 -5 0 -10 5 -10 10 0 6 5 10 10 10 6 0 10 -4 10 -10z"/>
<path d="M1090 480 c0 -5 5 -10 11 -10 5 0 7 5 4 10 -3 6 -8 10 -11 10 -2 0
-4 -4 -4 -10z"/>
<path d="M1950 477 c0 -10 -7 -20 -15 -23 -16 -6 -21 -24 -7 -24 5 0 16 6 26
13 15 11 17 18 8 33 -10 17 -11 18 -12 1z"/>
<path d="M510 451 c0 -21 37 -36 43 -17 4 11 -20 35 -35 36 -5 0 -8 -8 -8 -19z"/>
<path d="M344 448 c-3 -4 0 -8 5 -8 6 0 11 -4 11 -10 0 -5 -10 -10 -23 -10
-13 0 -28 -5 -34 -11 -7 -7 -20 -9 -30 -5 -14 6 -15 9 -4 15 8 6 9 11 3 15 -6
3 -18 -1 -26 -10 -14 -13 -14 -17 -2 -30 19 -18 51 -18 70 2 9 8 20 12 26 9
12 -8 13 -35 2 -35 -14 0 -45 -77 -37 -90 5 -8 11 -5 21 8 18 26 71 45 78 29
3 -7 3 5 -1 27 -4 27 -2 41 8 47 11 6 11 11 1 21 -9 9 -12 9 -12 -4 0 -21 -27
-31 -34 -12 -9 22 -8 24 10 24 8 0 12 4 9 10 -4 6 1 7 11 3 11 -4 15 -2 12 7
-4 14 -56 21 -64 8z"/>
<path d="M2256 435 c-4 -10 1 -15 16 -15 17 0 18 2 8 15 -7 8 -14 15 -15 15
-2 0 -5 -7 -9 -15z"/>
<path d="M2925 440 c-3 -5 -1 -10 4 -10 6 0 11 5 11 10 0 6 -2 10 -4 10 -3 0
-8 -4 -11 -10z"/>
<path d="M1490 432 c0 -13 36 -43 43 -36 9 9 -16 44 -30 44 -7 0 -13 -4 -13
-8z"/>
<path d="M2037 433 c-4 -3 -7 -11 -7 -17 0 -6 5 -5 12 2 6 6 9 14 7 17 -3 3
-9 2 -12 -2z"/>
<path d="M1683 423 c-17 -3 -24 -14 -28 -41 -9 -53 -14 -64 -24 -58 -10 7 -23
-19 -14 -28 14 -14 43 -5 54 16 8 14 14 18 17 10 6 -20 34 -14 30 6 -2 11 3
26 11 35 9 11 10 17 2 17 -6 0 -11 11 -11 25 0 14 -3 24 -7 24 -5 -1 -18 -4
-30 -6z"/>
<path d="M2173 418 c5 -18 49 -16 55 2 5 13 3 13 -13 0 -14 -11 -19 -12 -22
-2 -3 6 -9 12 -15 12 -5 0 -8 -6 -5 -12z"/>
<path d="M2320 420 c0 -5 5 -10 11 -10 5 0 7 5 4 10 -3 6 -8 10 -11 10 -2 0
-4 -4 -4 -10z"/>
<path d="M3610 419 c0 -6 -9 -8 -20 -4 -24 8 -28 -16 -5 -35 13 -10 19 -10 35
5 10 9 16 23 13 31 -6 16 -23 19 -23 3z"/>
<path d="M786 401 c-14 -16 -15 -19 -2 -24 9 -4 16 2 20 16 7 29 3 31 -18 8z"/>
<path d="M1180 388 l0 -33 15 29 c18 35 18 36 0 36 -10 0 -15 -10 -15 -32z"/>
<path d="M2490 410 c0 -5 5 -10 10 -10 6 0 10 5 10 10 0 6 -4 10 -10 10 -5 0
-10 -4 -10 -10z"/>
<path d="M2705 410 c-16 -7 -17 -9 -3 -9 9 -1 20 4 23 9 7 11 7 11 -20 0z"/>
<path d="M3236 405 c4 -8 8 -15 10 -15 2 0 4 7 4 15 0 8 -4 15 -10 15 -5 0 -7
-7 -4 -15z"/>
<path d="M2460 395 c0 -8 -4 -15 -10 -15 -5 0 -10 -5 -10 -11 0 -6 6 -9 14 -6
8 3 17 1 20 -6 2 -7 5 3 5 21 1 17 -3 32 -9 32 -5 0 -10 -7 -10 -15z"/>
<path d="M3680 402 c0 -6 -3 -17 -6 -26 -4 -11 0 -16 13 -16 14 0 19 6 18 22
-2 21 -25 40 -25 20z"/>
<path d="M820 390 c0 -5 5 -10 11 -10 5 0 7 5 4 10 -3 6 -8 10 -11 10 -2 0 -4
-4 -4 -10z"/>
<path d="M2262 378 c-17 -17 -15 -24 8 -24 11 0 20 6 20 13 0 18 -15 24 -28
11z"/>
<path d="M2395 379 c-4 -6 -5 -12 -2 -15 2 -3 7 2 10 11 7 17 1 20 -8 4z"/>
<path d="M1873 368 c5 -15 -22 -58 -37 -58 -3 0 -6 10 -7 23 -1 18 -2 17 -10
-8 -10 -35 -3 -68 13 -59 8 5 9 1 5 -10 -6 -16 -5 -16 21 -1 20 13 27 25 29
52 1 20 9 41 20 49 10 7 13 14 6 14 -6 0 -19 3 -29 7 -13 5 -16 3 -11 -9z"/>
<path d="M2029 378 c0 -2 -1 -18 -2 -36 -2 -39 14 -42 38 -6 14 22 15 28 4 35
-13 8 -38 12 -40 7z"/>
<path d="M1040 360 c0 -5 5 -10 10 -10 6 0 10 5 10 10 0 6 -4 10 -10 10 -5 0
-10 -4 -10 -10z"/>
<path d="M3219 365 c-1 -6 0 -14 1 -20 2 -5 2 -26 1 -45 0 -19 3 -41 8 -49 11
-17 31 -6 31 18 0 9 5 22 12 29 10 10 5 19 -20 44 -18 18 -33 28 -33 23z"/>
<path d="M2647 353 c-2 -5 7 -18 19 -31 21 -22 22 -22 27 -2 6 24 -35 54 -46
33z"/>
<path d="M2367 333 c-2 -10 -8 -26 -12 -35 -6 -14 0 -17 34 -16 23 0 41 5 41
10 0 5 -8 8 -17 6 -10 -2 -19 4 -19 12 -1 8 -2 21 -3 28 -2 18 -18 15 -24 -5z"/>
<path d="M3530 318 c1 -28 2 -30 11 -15 6 9 15 14 21 11 8 -5 9 -1 5 10 -4 10
-7 20 -7 22 0 2 -7 4 -15 4 -10 0 -15 -10 -15 -32z"/>
<path d="M2464 326 c-16 -18 -27 -73 -16 -80 5 -3 16 11 26 30 9 20 11 32 5
28 -8 -4 -9 0 -4 15 7 24 5 26 -11 7z"/>
<path d="M2874 308 c-4 -13 -2 -24 5 -26 6 -2 11 -10 11 -18 0 -14 21 -19 33
-8 7 7 -24 74 -34 74 -4 0 -11 -10 -15 -22z"/>
<path d="M13 309 c-18 -18 -16 -59 2 -59 9 0 18 -7 21 -15 4 -8 12 -15 20 -15
7 0 17 -7 22 -16 5 -9 13 -15 18 -14 5 0 10 -9 12 -20 2 -12 10 -24 18 -27 10
-4 11 -10 3 -25 -16 -29 0 -36 20 -9 18 23 19 23 30 5 10 -16 12 -14 8 16 -2
19 1 42 7 52 5 9 6 21 2 25 -5 4 -11 3 -13 -4 -6 -17 -33 -4 -34 16 0 12 -2
11 -8 -4 -5 -11 -6 -24 -4 -28 3 -5 -4 -4 -16 2 -11 7 -21 18 -21 26 0 8 -4
15 -9 15 -5 0 -12 9 -16 19 -3 11 -15 23 -25 26 -10 3 -20 15 -22 26 -2 16 -5
18 -15 8z"/>
<path d="M1924 296 c4 -15 1 -26 -6 -28 -8 -3 -8 -9 0 -24 11 -18 11 -18 12 4
0 13 6 22 15 22 20 0 19 36 -1 44 -25 9 -27 8 -20 -18z"/>
<path d="M2161 301 c-24 -18 -24 -21 -12 -58 12 -36 16 -39 40 -35 l26 6 -24
6 c-33 8 -36 23 -9 35 14 6 24 20 26 38 4 32 -12 35 -47 8z m-4 -43 c-3 -8 -6
-5 -6 6 -1 11 2 17 5 13 3 -3 4 -12 1 -19z"/>
<path d="M2581 279 c-13 -38 -13 -39 -3 -39 11 0 43 56 35 64 -13 12 -21 5
-32 -25z"/>
<path d="M70 291 c0 -6 4 -13 10 -16 6 -3 7 1 4 9 -7 18 -14 21 -14 7z"/>
<path d="M3352 280 c0 -14 2 -19 5 -12 2 6 2 18 0 25 -3 6 -5 1 -5 -13z"/>
<path d="M880 276 c0 -9 5 -16 10 -16 6 0 10 4 10 9 0 6 -4 13 -10 16 -5 3
-10 -1 -10 -9z"/>
<path d="M2673 279 c-25 -9 -30 -19 -10 -19 15 0 43 17 37 23 -3 3 -15 1 -27
-4z"/>
<path d="M3497 283 c-4 -3 -7 -27 -8 -52 0 -25 -3 -40 -6 -33 -6 14 -23 16
-23 3 0 -6 -12 -23 -27 -38 -16 -17 -24 -21 -20 -10 8 21 -2 49 -14 41 -5 -3
-9 -18 -9 -33 0 -29 45 -78 68 -73 7 2 12 -8 12 -24 l0 -27 33 25 c38 30 50
64 19 54 -13 -4 -22 -1 -26 9 -3 9 -10 13 -16 10 -11 -7 -13 5 -5 27 4 9 16
13 33 10 24 -3 27 0 27 25 -1 37 -14 73 -26 73 -6 0 -7 5 -4 10 7 11 2 13 -8
3z"/>
<path d="M2530 280 c-6 -22 -10 -133 -5 -128 13 13 23 91 15 112 -5 12 -9 19
-10 16z"/>
<path d="M3010 265 c0 -8 5 -15 10 -15 6 0 10 7 10 15 0 8 -4 15 -10 15 -5 0
-10 -7 -10 -15z"/>
<path d="M3191 264 c0 -11 3 -14 6 -6 3 7 2 16 -1 19 -3 4 -6 -2 -5 -13z"/>
<path d="M860 256 c0 -9 5 -16 10 -16 6 0 10 4 10 9 0 6 -4 13 -10 16 -5 3
-10 -1 -10 -9z"/>
<path d="M3132 240 c-12 -16 -22 -34 -22 -40 0 -5 -7 -10 -16 -10 -8 0 -12 -5
-9 -10 4 -6 12 -7 18 -3 7 5 21 8 32 8 14 0 19 6 17 18 -2 10 2 25 9 33 8 10
9 18 3 24 -7 7 -18 0 -32 -20z"/>
<path d="M2020 250 c0 -5 5 -10 10 -10 6 0 10 5 10 10 0 6 -4 10 -10 10 -5 0
-10 -4 -10 -10z"/>
<path d="M2810 244 c0 -8 5 -12 10 -9 6 4 8 11 5 16 -9 14 -15 11 -15 -7z"/>
<path d="M410 240 c0 -5 5 -10 10 -10 6 0 10 5 10 10 0 6 -4 10 -10 10 -5 0
-10 -4 -10 -10z"/>
<path d="M2756 237 c-15 -11 -17 -18 -8 -33 11 -19 11 -18 12 1 1 19 1 19 14
3 25 -34 38 -8 13 25 -11 15 -15 16 -31 4z"/>
<path d="M2068 225 c-10 -11 49 -68 62 -60 7 4 8 10 4 14 -5 3 -14 15 -20 26
-11 20 -35 31 -46 20z"/>
<path d="M2620 215 c0 -8 2 -15 4 -15 2 0 6 7 10 15 3 8 1 15 -4 15 -6 0 -10
-7 -10 -15z"/>
<path d="M2686 211 c-6 -10 3 -41 11 -41 7 0 32 33 33 43 0 10 -38 9 -44 -2z"/>
<path d="M400 181 c0 -16 6 -34 14 -40 11 -9 15 -5 20 20 9 46 8 49 -14 49
-15 0 -20 -7 -20 -29z"/>
<path d="M3230 191 c0 -14 5 -18 20 -14 11 3 20 13 20 22 0 14 -2 14 -10 1 -6
-10 -10 -11 -10 -2 0 6 -4 12 -10 12 -5 0 -10 -9 -10 -19z"/>
<path d="M3620 190 c0 -21 33 -29 45 -10 3 6 -1 10 -9 10 -9 0 -16 5 -16 10 0
6 -4 10 -10 10 -5 0 -10 -9 -10 -20z"/>
<path d="M2210 190 c0 -5 5 -10 10 -10 6 0 10 5 10 10 0 6 -4 10 -10 10 -5 0
-10 -4 -10 -10z"/>
<path d="M2286 191 c-4 -7 -5 -15 -2 -18 9 -9 19 4 14 18 -4 11 -6 11 -12 0z"/>
<path d="M2590 186 c0 -9 5 -16 10 -16 6 0 10 4 10 9 0 6 -4 13 -10 16 -5 3
-10 -1 -10 -9z"/>
<path d="M2943 183 c-13 -2 -24 -12 -24 -21 -1 -9 -2 -29 -3 -43 -2 -32 -22
-53 -70 -73 -54 -23 -48 -46 13 -46 49 0 50 1 53 33 2 20 8 32 18 32 22 0 32
22 35 77 1 26 2 47 1 47 0 -1 -11 -4 -23 -6z"/>
<path d="M3043 175 c-10 -17 -13 -17 -28 -5 -15 13 -17 12 -14 -4 10 -49 64
-43 57 5 -3 23 -4 23 -15 4z"/>
<path d="M3330 180 c0 -14 38 -32 45 -21 6 10 1 14 -27 24 -10 4 -18 2 -18 -3z"/>
<path d="M7 173 c-13 -12 -7 -64 8 -79 13 -14 15 -13 15 3 0 11 6 25 13 32 10
11 10 14 0 18 -7 3 -13 11 -13 19 0 15 -12 19 -23 7z"/>
<path d="M1799 142 c-14 -25 -21 -28 -57 -25 l-41 3 1 -40 c0 -26 -6 -48 -17
-60 -18 -20 -17 -20 45 -20 l63 0 -7 30 c-5 29 1 43 42 86 13 13 8 54 -6 54
-4 0 -14 -13 -23 -28z"/>
<path d="M1840 159 c0 -5 5 -7 10 -4 6 3 10 8 10 11 0 2 -4 4 -10 4 -5 0 -10
-5 -10 -11z"/>
<path d="M2457 163 c-4 -3 -7 -16 -7 -29 0 -16 -9 -25 -30 -33 -18 -6 -34 -21
-40 -36 -10 -26 -30 -26 -30 1 0 8 -4 14 -10 14 -5 0 -10 11 -10 24 0 14 -4
27 -9 30 -13 9 -20 -31 -7 -44 11 -11 12 -14 14 -59 2 -16 6 -21 17 -17 8 3
15 1 15 -4 0 -6 16 -10 36 -10 44 0 74 28 92 87 15 51 15 53 -4 53 -10 0 -14
6 -10 15 5 15 -5 20 -17 8z"/>
<path d="M1940 150 c0 -5 4 -10 9 -10 6 0 13 5 16 10 3 6 -1 10 -9 10 -9 0
-16 -4 -16 -10z"/>
<path d="M2000 145 c0 -15 18 -40 24 -34 3 3 -1 14 -9 25 -8 10 -14 15 -15 9z"/>
<path d="M2096 118 c8 -29 11 -31 22 -24 15 9 2 46 -15 46 -10 0 -12 -6 -7
-22z"/>
<path d="M1942 100 c0 -14 2 -19 5 -12 2 6 2 18 0 25 -3 6 -5 1 -5 -13z"/>
<path d="M2730 106 c0 -9 5 -16 10 -16 6 0 10 4 10 9 0 6 -4 13 -10 16 -5 3
-10 -1 -10 -9z"/>
<path d="M3617 96 c-20 -30 -7 -43 42 -43 26 0 31 3 19 11 -7 6 -21 21 -30 34
l-15 23 -16 -25z"/>
<path d="M221 89 c-10 -18 -10 -23 0 -30 12 -7 49 5 49 17 0 6 -26 34 -32 34
-2 0 -9 -10 -17 -21z"/>
<path d="M3371 68 c-15 -54 -11 -85 8 -50 7 13 11 40 9 60 l-3 37 -14 -47z"/>
<path d="M387 70 c-9 -11 -13 -20 -8 -20 11 0 35 29 29 35 -2 2 -12 -4 -21
-15z"/>
<path d="M1300 79 c0 -5 5 -7 10 -4 6 3 10 8 10 11 0 2 -4 4 -10 4 -5 0 -10
-5 -10 -11z"/>
<path d="M162 48 c2 -22 9 -34 21 -36 25 -5 32 25 12 48 -26 29 -37 25 -33
-12z"/>
<path d="M1830 48 c-7 -18 -15 -36 -18 -40 -2 -5 6 -8 17 -8 18 0 21 6 21 40
0 22 -1 40 -3 40 -1 0 -9 -15 -17 -32z"/>
<path d="M461 51 c-10 -6 -11 -14 -3 -26 9 -17 10 -16 17 4 8 27 4 33 -14 22z"/>
<path d="M689 50 c-1 -5 -2 -16 -3 -22 -1 -7 -9 -12 -19 -10 -9 2 -17 -2 -17
-8 0 -5 16 -10 35 -10 31 0 34 3 31 23 -3 12 -5 25 -5 30 -1 11 -21 9 -22 -3z"/>
<path d="M3086 52 c-3 -5 -2 -18 1 -30 5 -21 6 -21 19 -5 7 10 14 24 14 31 0
13 -26 17 -34 4z"/>
<path d="M415 40 c-3 -5 -1 -10 4 -10 6 0 11 5 11 10 0 6 -2 10 -4 10 -3 0 -8
-4 -11 -10z"/>
<path d="M2640 40 c0 -5 5 -10 10 -10 6 0 10 5 10 10 0 6 -4 10 -10 10 -5 0
-10 -4 -10 -10z"/>
<path d="M2955 40 c-3 -5 -1 -10 4 -10 6 0 11 5 11 10 0 6 -2 10 -4 10 -3 0
-8 -4 -11 -10z"/>
<path d="M3546 34 c-11 -30 -6 -37 14 -19 11 10 20 22 20 27 0 15 -28 9 -34
-8z"/>
<path d="M117 20 c6 -23 19 -26 26 -6 3 8 -1 17 -9 20 -22 9 -23 8 -17 -14z"/>
<path d="M313 28 c-10 -17 14 -29 50 -26 28 2 34 6 28 17 -10 16 -69 23 -78 9z"/>
<path d="M2572 20 c-11 -18 -10 -20 17 -20 24 0 28 3 24 20 -7 26 -25 26 -41
0z"/>
</g>
</svg>
